<svg xmlns="http://www.w3.org/2000/svg" viewBox="0 0 242.98 80.66"><defs><style>.cls-1{fill:#fff;}.cls-2{fill:#008838;}.cls-3{fill:#fe0;}.cls-4{fill:#00973d;}.cls-5{fill:#803d2f;}.cls-6{fill:#c47058;}.cls-7{isolation:isolate;}</style></defs><title>mrkim-logo</title><g id="Layer_2" data-name="Layer 2"><g id="Component_57_1" data-name="Component 57 1"><g id="Group_2097" data-name="Group 2097"><path id="Path_3205" data-name="Path 3205" class="cls-1" d="M9.5,53.67c-.17,0-.4-.15-.45,0a.42.42,0,0,0,.28.51h.11c.23,0,.47,0,.69,0C10.2,53.72,9.8,53.76,9.5,53.67Z"/><ellipse id="Ellipse_58" data-name="Ellipse 58" class="cls-2" cx="43.77" cy="43.49" rx="33.98" ry="34.33"/><path id="Path_3016" data-name="Path 3016" d="M21,30.33l.05,0,0-.2C21,30.18,21,30.26,21,30.33Z"/><path id="Path_3191" data-name="Path 3191" class="cls-1" d="M33.73,35.31a4.55,4.55,0,0,0,1.08,2.81,2.28,2.28,0,0,0,2.18,1c2.17-.39,3.11-2.15,3.31-4.19-1.11.41-2,1.19-3.14,1.56a.6.6,0,0,1-.65-.13,1.8,1.8,0,0,1-.61-1.22c-.15-1.4-.1-2.06,1.11-2.92A19.41,19.41,0,0,1,38.89,31c.12-.07.42-.21.18-.37-.46-.31-.84-.77-1.4-.87a2.6,2.6,0,0,0-2.26.74A6.2,6.2,0,0,0,33.73,35.31Zm.9-.45a7.2,7.2,0,0,1,.93-2.17,9.47,9.47,0,0,1-.93,2.17Zm-.05-.78a7.81,7.81,0,0,1,1.2-2.83Z"/><path id="Path_3192" data-name="Path 3192" class="cls-3" d="M44.16,53.69a8.22,8.22,0,0,0,0,3.24A4.08,4.08,0,0,1,44,54c-.3.41-.53.73-.75,1.05a26.89,26.89,0,0,0-2.59,5.24c-.12.27,0,.28.24.29a28.68,28.68,0,0,1,3.81.44c.14,0,.39.09.44-.09A3,3,0,0,1,46,59.77a3.67,3.67,0,0,0,.89-2.63c0-.88.3-1.24,1.11-1.46.19,0,.16-.14.12-.26a6.61,6.61,0,0,0-1.72-2.72c-.48-.38-.61-.37-1,.16a6.94,6.94,0,0,0-.83,2c0,.13,0,.31-.26.27s-.12-.21-.13-.33A3.87,3.87,0,0,0,44.16,53.69Zm-.54,2.43.29,1.77a3.26,3.26,0,0,1-.29-1.77Zm-.14,1.62.67,1.44a2.32,2.32,0,0,1-.66-1.44Z"/><path id="Path_3193" data-name="Path 3193" class="cls-1" d="M37.27,32.35a2.76,2.76,0,0,0-.81,3.73.5.5,0,0,0,.65.29l.07,0A18.25,18.25,0,0,0,40,34.73a1.31,1.31,0,0,0,.65-.68,1.73,1.73,0,0,0-.64.31,10.23,10.23,0,0,1-2.71,1.58.67.67,0,0,1-.9-.32.75.75,0,0,1,0-.16,2.47,2.47,0,0,1,1.06-2.74c.78-.48,1.6-.9,2.41-1.34a.3.3,0,0,0,.19-.35.34.34,0,0,0-.31-.28c-.14,0-.29-.05-.36.16s-.13.17-.22.24C38.57,31.62,37.89,31.94,37.27,32.35Z"/><path id="Path_3194" data-name="Path 3194" class="cls-1" d="M29.58,38.43c-.11.16-.24.33-.16.52.15.4,0,.76-.08,1.19l4.21-3.21c.11-.09.2-.21.15-.34-.13-.33-.05-.7-.25-1-.25.13-.42.41-.73.45.13-.23.36-.36.63-.63a2.35,2.35,0,0,0-.56.2l-3.37,2.53c-.1.08-.24.18-.18.33S29.46,38.35,29.58,38.43Z"/><path id="Path_3195" data-name="Path 3195" class="cls-1" d="M27.68,42.43a1.34,1.34,0,0,0,.23-.13c1.49-1.17,3-2.34,4.53-3.46.37-.27.71-.58,1.06-.87a.29.29,0,0,0,0-.43c-.13-.2-.25,0-.33,0a4.07,4.07,0,0,0-.75.46Q30.2,39.7,28,41.41C27.55,41.72,27.43,42,27.68,42.43Z"/><path id="Path_3196" data-name="Path 3196" class="cls-4" d="M29.39,42a1.86,1.86,0,0,0-.27,1.45,2,2,0,0,0,2.42,1.32,1.67,1.67,0,0,1-1.58.12,1.7,1.7,0,0,0,1.89.36,1.87,1.87,0,0,1-1.19.33c-.46,0-.69-.42-1-.8a1.31,1.31,0,0,1-.42,1.1,5.09,5.09,0,0,0-.57.66.77.77,0,0,0-.05,1,2.16,2.16,0,0,0,1.45.74.61.61,0,0,0,.59-.28,23.19,23.19,0,0,0,1.53-2.4c.34-.52-.29-.92,0-1.38a.73.73,0,0,0-.09-.09.78.78,0,0,0-.6-.23H30.06a9.65,9.65,0,0,1,1.78-.08c.34,0,.73.44.58.56s-.12.36,0,.55a.5.5,0,0,1,0,.43,14.38,14.38,0,0,1-1.15,2.11,2,2,0,0,0-.37.61H31a.41.41,0,0,0,.11-.07,6.38,6.38,0,0,0,2-3.94,1.47,1.47,0,0,0-.93-1.72,5.58,5.58,0,0,0-1.75-.5C30.06,41.8,29.64,41.65,29.39,42Z"/><path id="Path_3197" data-name="Path 3197" class="cls-4" d="M36.55,58.11c0,.1-.13.2,0,.27s.14-.11.16-.17a22.27,22.27,0,0,1,1.22-2.32,6.13,6.13,0,0,1,1.12-1.55c0,.1,0,.16-.09.23a28.69,28.69,0,0,0-2,3.51.61.61,0,0,0,.09.8c.58.71,1.42,1.2,1.83,2,.06.11.21.17.3.26s.25,0,.26-.11a12.88,12.88,0,0,1,1-3,3.51,3.51,0,0,1,.71-1.28,2.34,2.34,0,0,1-.09.24A18.74,18.74,0,0,0,39.58,61c-.06.28,0,.3.24.37a9.32,9.32,0,0,0,1.75.14,25.33,25.33,0,0,1,3.77.62l6.24,1.68c.29.08.58.13.8-.18.45-.64.86-1.31,1.26-2A18.58,18.58,0,0,1,56.12,58c.49-.53.94-1.09,1.46-1.68-.11,0-.16,0-.18.05a28.3,28.3,0,0,0-3.54,4c-.65.94-1.3,1.87-1.86,2.86a.38.38,0,0,1-.51.2h0c-.53-.21-1.07-.4-1.6-.59a27.52,27.52,0,0,0-7.76-1.66A8,8,0,0,1,40.55,61c-.34-.09-.37-.21-.26-.49.2-.5.4-1,.57-1.51A12.54,12.54,0,0,1,44,53.65c.26-.25.16-.52.13-.82l-.5.43a10.21,10.21,0,0,1-1.25,1.61,19.34,19.34,0,0,1-1.26,2,6.46,6.46,0,0,1,1.25-2,5.77,5.77,0,0,1,1.25-1.61c0-.21.18-.29.29-.42a.51.51,0,0,0,.2-.4c0-.49-.34-.91-.31-1.4a.12.12,0,0,0-.08-.09c-.44-.05-.89-.3-1.34,0,0-.25-.16-.16-.31-.1a3.11,3.11,0,0,0-.88.64,23.44,23.44,0,0,0-3.46,4.47A10.22,10.22,0,0,0,36.55,58.11Zm2-.31a10.18,10.18,0,0,1,1.56-4.21Zm1.15-2A5.82,5.82,0,0,1,41,53.4a14,14,0,0,1-1.27,2.42Zm2.34-3a8.43,8.43,0,0,1-1.62,2.35,4.84,4.84,0,0,1,1.62-2.35Zm-.15-1.54a17.5,17.5,0,0,1-1.78,1.77,7.3,7.3,0,0,1,1.78-1.77Z"/><path id="Path_3198" data-name="Path 3198" class="cls-3" d="M33.75,53.72a4.62,4.62,0,0,1,1.68,2.61A4.32,4.32,0,0,0,36.29,58a20.6,20.6,0,0,1,4.59-6.78A3.55,3.55,0,0,0,38.66,51,11.55,11.55,0,0,0,33.78,53C33.37,53.31,33.44,53.46,33.75,53.72ZM37.36,52a10.51,10.51,0,0,0-1.74,2.64A4.5,4.5,0,0,1,37.36,52Z"/><path id="Path_3199" data-name="Path 3199" class="cls-2" d="M28.77,48.06a1.05,1.05,0,0,1-.48-1.42.86.86,0,0,1,.1-.16c.14-.19.29-.37.45-.55.29-.36.67-.69.39-1.24a2.77,2.77,0,0,1-.31-.62c0-.18-.12-.23-.3-.08-.87.74-1.76,1.47-2.64,2.2l-2.41,2c-.63.52-1.26,1-1.88,1.6-.09.07-.21.12-.17.31a3.46,3.46,0,0,1,0,.85,1.81,1.81,0,0,0,.92,1.68,25.79,25.79,0,0,1,3.26,3,10.64,10.64,0,0,1,.83,1,18.1,18.1,0,0,1-1.83-1.44c.88,1,1.75,2,2.63,3.16,0-.42-.2-.76-.05-1.08.23-.5.23-.91-.33-1.18,0,0-.06-.06-.09-.09-.8-.8-1.62-1.59-2.4-2.41a5.21,5.21,0,0,1-1.22-1.91c.26.23.53.45.79.69a33.28,33.28,0,0,1,3.43,3.88c.05.06,0,.2.17.17a.35.35,0,0,0,.23-.24c0-.15,0-.3,0-.45,0-.32-.09-.66.11-1A.8.8,0,0,0,28,54a15.73,15.73,0,0,1-1.48-3.63,1.88,1.88,0,0,1-.14-.46c0-.16-.2-.29-.07-.48a12.81,12.81,0,0,1,1.9,3.6c0,.1-.06.27.09.3s.16-.13.23-.22a10.8,10.8,0,0,1,1.95-1.93.81.81,0,0,0,.46-.64,5.39,5.39,0,0,1,.15-1.13c.15-.42.24-.85.38-1.31-.41.15-.68.44-1.1.45A2.91,2.91,0,0,1,28.77,48.06ZM27.5,54.55a5.82,5.82,0,0,1-1-2,5.58,5.58,0,0,1,1,2Z"/><path id="Path_3200" data-name="Path 3200" class="cls-1" d="M32.71,35.29a.81.81,0,0,0,.82-.61,6.74,6.74,0,0,1,.08-1.19A5.36,5.36,0,0,1,36,29.69a4,4,0,0,0-.87.34,5.39,5.39,0,0,0-1.91,2.34,9.42,9.42,0,0,0-.62,2.79.1.1,0,0,0,.06.13Z"/><path id="Path_3201" data-name="Path 3201" class="cls-1" d="M28.4,40.84H27.28c.18.76.18.76.77.33A3.61,3.61,0,0,0,28.4,40.84Z"/><path id="Path_3202" data-name="Path 3202" class="cls-1" d="M10.7,57a1.48,1.48,0,0,0,1.64-.64c.09-.12.18-.23.28-.34.78-.83,1.79-1.41,2.54-2.27a1.89,1.89,0,0,0,.63-1.12.82.82,0,0,1-.85.31c-.41-.12-.57.06-.79.37a19.73,19.73,0,0,1-2.34,2.14A20.7,20.7,0,0,0,10,57,5.77,5.77,0,0,1,10.7,57Z"/><path id="Path_3203" data-name="Path 3203" class="cls-1" d="M12.45,57.13a18.3,18.3,0,0,1,2.06-2.07,4.28,4.28,0,0,0,1.61-2.36,1.63,1.63,0,0,0-.48-1.63A1.27,1.27,0,0,0,14.22,51a14.37,14.37,0,0,0-3.73,2.6.28.28,0,0,0-.09.38l0,0c.15.14.26,0,.37-.12.58-.46,1.07-1,1.62-1.52A5.74,5.74,0,0,1,14.49,51a1.18,1.18,0,0,1,1.21.35,1.28,1.28,0,0,1,.35,1.12A4.35,4.35,0,0,1,14.21,55a13.27,13.27,0,0,0-1.8,1.71,1.3,1.3,0,0,1-1.09.54H9.9c.11.29.26.37.48.36a4.82,4.82,0,0,1,.93,0A1.15,1.15,0,0,0,12.45,57.13Z"/><path id="Path_3204" data-name="Path 3204" class="cls-1" d="M12.1,58.3c.36.05.71.25,1.14.08A1.09,1.09,0,0,0,12.1,58.3Z"/><path id="Path_3206" data-name="Path 3206" class="cls-1" d="M13.15,46.57A3.59,3.59,0,0,0,11,47.9,8.64,8.64,0,0,0,9.29,53c0,.41.24.39.51.42s.3-.19.3-.4a11,11,0,0,1,.09-1.81A6.52,6.52,0,0,1,13.15,46.57Z"/><path id="Path_3207" data-name="Path 3207" class="cls-4" d="M22.73,40.92H23a2.7,2.7,0,0,1,2.35,1.52A7.59,7.59,0,0,1,26,45.08a1.48,1.48,0,0,0,1.22-1.5q0-.84-.06-1.68a2.16,2.16,0,0,0-1.47-2.11c.34.17.73-.2,1.09.24a2,2,0,0,1,.05-1.23c.09-.47,0-.56-.44-.55a2.75,2.75,0,0,0-1,.23c.14-.33.44-.27.63-.3.92-.15,1,0,.84.89a.06.06,0,0,0,0,0,1.12,1.12,0,0,0,.43,1.22,1.3,1.3,0,0,0,1.4-.14.91.91,0,0,0,.38-1,2.26,2.26,0,0,0-.82-1.5,2,2,0,0,0-2.73,0c-.56.56-.81,1.32-1.34,1.91.29.1.51-.13.77-.08a6.82,6.82,0,0,0-2.23,1.32Z"/><path id="Path_3208" data-name="Path 3208" class="cls-1" d="M22.63,45.66c.2-.62.07-1-.46-1.26A8.27,8.27,0,0,0,22.63,45.66Z"/><path id="Path_3209" data-name="Path 3209" class="cls-4" d="M24,43.55a2,2,0,0,1,.4,2.39,1.5,1.5,0,0,0,.74-.35,1.45,1.45,0,0,0,.33-1.46,4.29,4.29,0,0,0-1.15-2.4,2.57,2.57,0,0,0-1.82-.63c-.42,0-.52.4-.82.6l1.06.84A15.47,15.47,0,0,1,24,43.55Z"/><path id="Path_3210" data-name="Path 3210" class="cls-4" d="M21.33,43.88a.59.59,0,0,1,.48-.17A2.09,2.09,0,0,1,22.89,45c0,.42-.19.82-.1,1.25,0,.17.09.31.27.26a1.54,1.54,0,0,0,.59-2.84L21.9,42.23a.66.66,0,0,0-.94-.08.46.46,0,0,0-.12.12,3.28,3.28,0,0,0-.72,2.41Z"/><path id="Path_3211" data-name="Path 3211" class="cls-1" d="M62.21,37s0-.05-.06-.06l-1.32-.66c0,.1,0,.14,0,.17A10.19,10.19,0,0,1,62.75,39a.29.29,0,0,0,.16.21c.61.21.71.76.88,1.39.13-.26.34-.32.5-.45a.63.63,0,0,0,.16-.88.1.1,0,0,0,0,0C63.84,38.34,63.39,37.32,62.21,37Zm.86,1.57c-.14,0-.21-.08-.22-.22s0-.28.19-.3a.2.2,0,0,1,.24.13c0,.27,0,.38-.2.39Zm.6.79c-.14,0-.19-.1-.2-.34,0,0,.05-.15.21-.17s.2.15.22.23a.26.26,0,0,1-.23.28Z"/><path id="Path_3212" data-name="Path 3212" class="cls-2" d="M61.83,76.87a.3.3,0,0,0,0-.42L61,75.25c-.79.52-1,1.42-1.31,2.18-.46,1-.89,2.09-1.26,3.17a.08.08,0,0,1,0,.05h.86a7,7,0,0,1,1.08-1.9C60.85,78.11,61.33,77.49,61.83,76.87Z"/><path id="Path_3213" data-name="Path 3213" class="cls-2" d="M62.76,76.8a.31.31,0,0,0,0-.44l0,0A11.43,11.43,0,0,1,61.52,75c-.05-.07-.11-.19-.24-.07s-.09.16,0,.29c.24.33.43.7.69,1a.57.57,0,0,1,0,.81l-.05,0A29.18,29.18,0,0,0,60,79.64a11.12,11.12,0,0,1-.59,1H60A21,21,0,0,1,62,77.79Z"/><path id="Path_3214" data-name="Path 3214" class="cls-4" d="M58.36,59.77a39.45,39.45,0,0,0-2.85,3.94c-.32.49-.66,1-1,1.46a10.12,10.12,0,0,0,1.53-1.8,35.2,35.2,0,0,1,4.13-5,12.38,12.38,0,0,1,3.43-2.24A2.56,2.56,0,0,1,65,56a1.56,1.56,0,0,0,.68,0c-.47-.58-.63-.61-1.26-.35a24.44,24.44,0,0,0-2.9,1.44A12.68,12.68,0,0,0,58.36,59.77Z"/><path id="Path_3215" data-name="Path 3215" class="cls-4" d="M61.13,54c-.12-.21-.28-.13-.42-.16-.37-.54-.63-.55-.9,0-.08.18-.18.35-.31.6l.92-.38c-.31.37-.78.51-1.11.88A18.17,18.17,0,0,1,61.13,54Z"/><path id="Path_3216" data-name="Path 3216" class="cls-3" d="M58.53,50.5a1.11,1.11,0,0,1-.39,1.23A9.88,9.88,0,0,1,56,52.82a10.07,10.07,0,0,1-3,.75,4.3,4.3,0,0,1,1.34,2.35,8.63,8.63,0,0,0,.36,1.75c.07.17.09.29.28.11a31.29,31.29,0,0,0,2.58-2.31A7.42,7.42,0,0,0,59,53.1a4.65,4.65,0,0,0,0-2.4,4.32,4.32,0,0,0-.46-1.61A2.8,2.8,0,0,0,58.53,50.5Zm-3.35,6a3.25,3.25,0,0,1,.75-1.56c-.24.53-.55,1-.75,1.56Zm.86-.54a3.24,3.24,0,0,1,.56-1.13l.09.06Z"/><path id="Path_3217" data-name="Path 3217" class="cls-1" d="M48.27,57.36a.33.33,0,0,0,.27-.24.23.23,0,0,0-.25-.2c-.14,0-.19.11-.19.23S48.17,57.37,48.27,57.36Z"/><path id="Path_3218" data-name="Path 3218" class="cls-2" d="M50.37,80.43a1.2,1.2,0,0,0-.74-.53A5.2,5.2,0,0,1,48,79.06c-.15.67-.58.84-1.21.84A11.19,11.19,0,0,1,43.07,79a8,8,0,0,0-2.22-.49c-1.14-.06-2.27-.25-3.41-.32-.89-.06-1.76-.17-2.63-.28-.57-.07-.65-.22-.59-.8.09-.76.19-1.51.29-2.27.16-1.24.39-2.48.66-3.7a11.66,11.66,0,0,1,.9-2.69c.16-.3-.07-.48-.2-.66s-.23-.35-.56-.28a1.29,1.29,0,0,1-1.57-.93,1.5,1.5,0,0,1,0-.37c0-.34-.2-.47-.53-.38a.88.88,0,0,0-.23-.73,28.93,28.93,0,0,0-1.43,8.61,1.76,1.76,0,0,0,.13-.5,27.69,27.69,0,0,1,.56-4.35A8.33,8.33,0,0,1,33,66.4c-.09.69-.41,1.3-.55,2-.2.92-.31,1.85-.44,2.78-.2,1.51-.27,3-.43,4.56a4.7,4.7,0,0,0,.12,1.05c.19-1.9,0-3.86.89-5.65a12.94,12.94,0,0,1-.08,2.49c0,.45-.1.92-.11,1.36a30.32,30.32,0,0,0-.1,3.69,17.77,17.77,0,0,1,.07,1.78,1.62,1.62,0,0,1,0,.22H34.5a5,5,0,0,1-.76-3.56,12.07,12.07,0,0,0,.78,3.56h16A.55.55,0,0,1,50.37,80.43ZM33.1,78.77a12.59,12.59,0,0,1,0-4.74Z"/><path id="Path_3219" data-name="Path 3219" class="cls-3" d="M56.43,75.58a5.17,5.17,0,0,1-.43,3A5,5,0,0,0,58.34,77a1.64,1.64,0,0,0,.25-1.32,2.85,2.85,0,0,0-.11-.66V76c-.31-1-.23-2-.56-3a13.25,13.25,0,0,0-1.51-3.84,6,6,0,0,0-3.21-2.39,2.67,2.67,0,0,0-1.45.2,9,9,0,0,1-2.23.47.23.23,0,0,0-.24.14c0,.15.12.16.19.19.71.29,1.38.64,2.06,1a4.21,4.21,0,0,1,2.18,3,10.46,10.46,0,0,1,0,4.49.85.85,0,0,1-.08.35v-.71c-.19,1.06-.63,2-.9,3.05a1.37,1.37,0,0,1-1.51,1.22l-.19,0a1.25,1.25,0,0,0,.37.56h1.85A5.94,5.94,0,0,0,56.43,75.58Zm-1.24,2.09c.62-2.34,1.27-4.67.86-7.15A8.72,8.72,0,0,1,55.19,77.67ZM52.77,68c1,.38,3.35,2.67,3,4.5C55.38,70.5,54,69.27,52.77,68Z"/><path id="Path_3220" data-name="Path 3220" class="cls-2" d="M57.79,80.66h.44c.69-1.57,1.19-3.17,1.89-4.69A47.58,47.58,0,0,0,57.79,80.66Z"/><path id="Path_3221" data-name="Path 3221" class="cls-2" d="M58.07,79.73a9.57,9.57,0,0,1,.47-1A6.26,6.26,0,0,0,59,77.5a6.5,6.5,0,0,1-2,1.44,3.52,3.52,0,0,1-.45.18,2.49,2.49,0,0,0-1.34,1,1.44,1.44,0,0,1-.49.49h3A2.81,2.81,0,0,1,58.07,79.73Z"/><path id="Path_3222" data-name="Path 3222" class="cls-3" d="M48.32,54.84a1.69,1.69,0,0,0-.13-.77c-.26-.61-.65-1.15-.85-1.78a.78.78,0,0,1,.31-1l.15-.06a12,12,0,0,1,2.2-.54,4.43,4.43,0,0,0-1.27-.81.57.57,0,0,1-.37-.5c0-.41-.22-.35-.46-.13a5.15,5.15,0,0,1-1.23.84,15.15,15.15,0,0,1-2.34,1A6.22,6.22,0,0,1,48.32,54.84Z"/><path id="Path_3223" data-name="Path 3223" class="cls-5" d="M50.55,44.59c-.31-.14-.59-.26-.68-.65a11.07,11.07,0,0,0-.45-1.13,4,4,0,0,0-.18,2,1.92,1.92,0,0,0,2.12,1.71A1.89,1.89,0,0,0,52.5,46a9.22,9.22,0,0,0,1.65-1.77,1.58,1.58,0,0,0,.5-1c-.27.23-.49.51-.75.75a2.61,2.61,0,0,1-2,.86,1.8,1.8,0,0,0-.92.05s-.11,0-.09,0C51,44.41,50.65,44.63,50.55,44.59Z"/><path id="Path_3224" data-name="Path 3224" class="cls-6" d="M48.17,42.26c-.08-.41,0-.66.39-.69s.94-.38,1.5-.14a1.19,1.19,0,0,0,.87,0c-.11.36-.49.28-.64.43.5.84,1.07.35,1.63.12,0-.08-.05-.08-.1-.11s-.25-.25-.2-.36.25-.06.39,0a5.45,5.45,0,0,1,1,.27,6.25,6.25,0,0,1,1.05.28,2.74,2.74,0,0,0,1.18.42c.13,0,.21,0,.18.18a5.26,5.26,0,0,1-.36,1.75,3.61,3.61,0,0,0-.66,1.87,2,2,0,0,1-1,1.79,15,15,0,0,0,1.42-4.42,1.16,1.16,0,0,0-.34.53,6.17,6.17,0,0,1-2.11,2.42A2.1,2.1,0,0,1,49,45.31,4.68,4.68,0,0,1,49,43.52c0-.24.14-.49,0-.71,0,0-.08,0-.13-.05a1.56,1.56,0,0,0-.14.71,8.27,8.27,0,0,1,0,2.33,5.16,5.16,0,0,0,.15,1.36c.1.49-.13,1,.27,1.47.07-.08.12-.2.26-.24,0,.44.49.3.51.29.46-.2.59-.65.77-1.06,0-.14-.08-.14-.19-.17a1.48,1.48,0,0,1-.74-.34,3.44,3.44,0,0,1,1.77.2.48.48,0,0,1-.45.15c-.15,0-.21,0-.21.2A3.73,3.73,0,0,0,51,48.71c.12.36.54.55.79.36,0,.13,0,.29.06.42.1-.2.34,0,.46-.16.34-.42.92-.56,1.17-1.07a.38.38,0,0,1,.26-.22c.16.14-.22.33,0,.44a.54.54,0,0,0,.6-.12,2.82,2.82,0,0,1,.36-.24c-.19.34-.46.6-.65.92.19.06.31,0,.43-.12a30.1,30.1,0,0,1,3.18-1.67,2.87,2.87,0,0,0,1.78-1.59c.27-.73.52-1.46.78-2.18.34.21.44.27.56.22.87-.32,1.75-.63,2-1.67A5.15,5.15,0,0,0,63,40.38a.86.86,0,0,0-.43-.8.87.87,0,0,0-.92.07,6.38,6.38,0,0,1-.71.43c-.29.12-.55.29-.43.61s-.38.52-.37.88c0,.13-.17,0-.26,0s-.09-.07,0-.17c.21-.3.19-.39,0-.83,0,0,.08-.11.09-.17,0-.24.36-.49,0-.73-.09-.06,0-.18.07-.23s.09.06.13.1a.3.3,0,0,0,.35,0c.12-.18-.27-.28,0-.34s.19-.24.11-.34-.35-.35-.29-.61.31-.35.46-.53c-.18-.08-.46-.08-.36-.38s.13.09.23,0a1.78,1.78,0,0,0-1.4-1.6c-1.46-.42-2.92-.84-4.35-1.32a11.16,11.16,0,0,0-5.65-.13,2.31,2.31,0,0,1,1.32,1.4c-.47-.07-.78-.45-1.19-.62a.76.76,0,0,0-1,.4.45.45,0,0,0-.05.19,12.89,12.89,0,0,0-.1,1.64.37.37,0,0,1-.06.29,7.44,7.44,0,0,0-1,2,4,4,0,0,0,.28,3.61c0-.21-.13-.42,0-.61l1,2.25A4.28,4.28,0,0,0,48.17,42.26Zm13-1.48c.17-.19.29-.44.46-.63.49-.57.89-.48,1.26.32l-.5-.2c.24.45.58.82.35,1.28a1.85,1.85,0,0,1-1,.88c.12-.39.4-.67.54-1s0-.71-.13-1.09c-.23.19-.43.32-.34.63s-.14.37-.3.5a.19.19,0,0,1-.25,0s0,0,0,0c-.07-.18-.27-.35-.06-.58Zm-6.93.6a1.08,1.08,0,0,1,.34-1.18c-.15,1,.49,1.46,1.05,2-.84-.1-1.29-.35-1.39-.84Zm2-3.33c.09.25-.1.45.05.66s-.06.07-.09.09A1.78,1.78,0,0,1,55,39a6.31,6.31,0,0,0-.76-.08c.24-.31.55-.07.8-.22a.69.69,0,0,1,.13-.78c-.48-.2-.71.14-1,.37a1.46,1.46,0,0,1,1.95-.69,1.13,1.13,0,0,1,.21.12h0a1.23,1.23,0,0,0-1.54-.41c-.11.05-.15,0-.43-.15a1.32,1.32,0,0,1,1.85.18c0,.05.07.09.09.13a.25.25,0,0,1,0,.25h0c.1.29.3.26.6.11-.41.39.1.23.12.37-.29.25-.55,0-.86-.1Zm3.45,3a2.26,2.26,0,0,1-1.43,1.43,12.87,12.87,0,0,1,1.43-1.43Zm-3.56-5.93a1.3,1.3,0,0,1,1.25.74c.1.16.18.33.31.56-.11,0-.17,0-.21-.08a2.24,2.24,0,0,0-2.41-.22,9.42,9.42,0,0,1-1.2.23,4.21,4.21,0,0,1,2.26-1.23Zm-2.78,6.1a2.2,2.2,0,0,0-.07-1.08c.54.36.57.62.07,1.08Zm.19-3.05c.08.28-.22.55,0,.82-.46-.34-.46-.45,0-.82Zm-.65,2.72c-.35-.2-.64.13-1,.1.31-.53.64-.57,1-.1ZM50,40.78c-.1-.12-.14-.12-.33,0s-.6-.26-.64-.5.07-.51.55-.72c-.09.25-.23.41-.2.64s.07.25.22.21.27,0,.24-.19A1.19,1.19,0,0,1,50,39.5a2.32,2.32,0,0,0,1.17,1.72A1,1,0,0,1,50,40.78Zm1.44-3.73c.53.65.1,1.77-1.19,2.2l.52-.57-.61.19c.62-.48,1.38-.82,1.28-1.82Zm-2.66-.14c-.1-.21.08-.29.18-.4.49-.59,1-.57,1.55.13-.78-.46-.9-.46-1.48,0a1.45,1.45,0,0,0,.36,0,1.19,1.19,0,0,1,1.27.53.63.63,0,0,1,.09.73c-.19.27-.35.56-.8.56s-1-.21-1.09-.76a1.26,1.26,0,0,0,.86.56c-.06-.22-.22-.41-.14-.62s.32-.29.51-.41a.8.8,0,0,0-.91-.21l-.33.1a.16.16,0,0,1-.19-.08c-.11-.19.13-.1.12-.12Zm-1.25,4.6a9.32,9.32,0,0,1,1.37-.87c-.14.72-.56,1-1.37.87Z"/><path id="Path_3225" data-name="Path 3225" class="cls-1" d="M47.91,34.82c.14-.4.39-.75.55-1.2C47.69,33.81,48,34.41,47.91,34.82Z"/><path id="Path_3226" data-name="Path 3226" class="cls-5" d="M53.53,42.77c-.58-.13-1.15-.55-1.73-.39a2.57,2.57,0,0,1-1.75-.11,2.25,2.25,0,0,0-.82-.09c-.14,0-.37,0-.37.13s.23.22.39.23.55-.07.75,0a4.67,4.67,0,0,0,1.76.45,4.53,4.53,0,0,0,2.34-.08C54,42.72,53.72,42.81,53.53,42.77Z"/><path id="Path_3227" data-name="Path 3227" class="cls-1" d="M51.57,43.17a3.45,3.45,0,0,1-1.9-.3l-.07.1c.18.35.38.69.53,1.05a.47.47,0,0,0,.36.29A4.08,4.08,0,0,0,53.4,44a6.38,6.38,0,0,0,.94-.78,6.88,6.88,0,0,1-1.63.22C52.29,43.45,52,43.15,51.57,43.17Z"/><path id="Path_3228" data-name="Path 3228" class="cls-1" d="M17.07,48a2.77,2.77,0,0,0-2.57-1.4,3.56,3.56,0,0,0-2.67,1.54,7.28,7.28,0,0,0-1.43,5.1c.44-.36.82-.68,1.22-1a8.65,8.65,0,0,1,3-1.64,1.26,1.26,0,0,1,1.57.72,2.43,2.43,0,0,1,.08,1.89,4.63,4.63,0,0,1-1.32,1.89l-1.8,1.71c-.56.55-.46.93.28,1.16a2.59,2.59,0,0,0,2.2-.28,5.77,5.77,0,0,0,2.71-5.34,7.12,7.12,0,0,0-.14-1.22A8.7,8.7,0,0,0,17.07,48Zm-6.49,4.5a10.4,10.4,0,0,1,2.9-4.62,27,27,0,0,0-2.9,4.62ZM17,55l.31-2.13A5.76,5.76,0,0,1,17,55Z"/><path id="Path_3229" data-name="Path 3229" class="cls-3" d="M51.55,63.12c.25.13.28-.06.34-.19a17,17,0,0,1,2.34-3.7c.3-.36.56-.64.18-1.21a9.55,9.55,0,0,1-.77-2A3,3,0,0,0,53,54.81c-.24-.22-.42-.24-.71,0a4.09,4.09,0,0,1-3.65,1,1,1,0,0,0-1.29.63l0,.12a4.49,4.49,0,0,0-.11,1,3.37,3.37,0,0,1-.58,1.85,6.91,6.91,0,0,1-.84,1,.77.77,0,0,0-.23.64c0,.15.32.14.51.15a3.56,3.56,0,0,1,.47.1,5.55,5.55,0,0,0,1.8.32,13.46,13.46,0,0,0,1.52-.37c.56-.16,1.11-.34,1.66-.51a5.64,5.64,0,0,1-3,1A20,20,0,0,1,51.55,63.12Zm-3.4-6.41a2.35,2.35,0,0,1,1.36-.4c.28,0,.54-.15.89-.07-.63.26-1.26.28-1.86.47.09.2.39.32.23.56s-.2.31-.42.28-.26-.17-.35-.34-.08-.34.15-.5Zm3.16-.33a2.7,2.7,0,0,1-1.76.31Zm-4.74,4.71c1.68-.81,3.41-1.49,5.06-2.33A12.27,12.27,0,0,1,46.57,61.09Zm3.69-.66a3.51,3.51,0,0,1,2.15-.91Z"/><path id="Path_3230" data-name="Path 3230" class="cls-6" d="M48.34,52a.89.89,0,0,0-.2,1.11,6,6,0,0,1,.57,2.19c0,.35.14.34.41.24.5-.18,1-.3,1.5-.48a2.7,2.7,0,0,0,1.74-1.42.69.69,0,0,1,.77-.45.82.82,0,0,0,.27,0,10.33,10.33,0,0,0,3.51-1.63A2.56,2.56,0,0,0,58,50.07c.1-.41.22-.81.36-1.21s.31-.85.48-1.32a6.73,6.73,0,0,1-2.29,1.21l.45-.4c.15-.14.4-.18.44-.46a26.66,26.66,0,0,0-3.15,1.72,22.42,22.42,0,0,1-3,1.63c-.55.25-.73.21-1-.25a3.82,3.82,0,0,1-.66,1.93,6.46,6.46,0,0,1,.24-1.86A2.19,2.19,0,0,0,48.34,52Zm8.33-3.13.06.07-1.26,1.27-.06-.07Zm-2,2.52a5.28,5.28,0,0,1-2,1.19Z"/><path id="Path_3231" data-name="Path 3231" class="cls-3" d="M51.51,33.23a23.75,23.75,0,0,1,4.34.83c1.83.54,3.56,1.35,5.33,2.06a8.08,8.08,0,0,1,3.21,1.94.22.22,0,0,0,.31.06h0a8.75,8.75,0,0,0-1.93-2.27,2.63,2.63,0,0,1,1.39.36c0-.83.15-1.62.17-2.41a15.94,15.94,0,0,0-.06-2.93,8.88,8.88,0,0,0-1.1-3.12,7.19,7.19,0,0,0-3.1-2.88,2.18,2.18,0,0,1,1.27.33,4.85,4.85,0,0,0-1.3-1.55A2,2,0,0,0,58.74,23a6.85,6.85,0,0,0-2.69.71,8.61,8.61,0,0,0-2.56,1.88,6,6,0,0,1,1.82-2c-1.25.65-2,1-3.48,4.18a6.31,6.31,0,0,1,.53-1.66,14.09,14.09,0,0,1,.94-1.47c-2.26,1.05-5.28,5-5.58,7.24l1.19-.19,0,.06-1.27.64H48A16.11,16.11,0,0,1,51.12,32a11.88,11.88,0,0,1,3.2.26,8.18,8.18,0,0,1,4.31,2l-1.52-.64a14.76,14.76,0,0,0-5.32-1.15,15.85,15.85,0,0,0-2.92.16,11.9,11.9,0,0,0-4,1.25,1.31,1.31,0,0,0-.62.67c.47-.22.86-.42,1.26-.56A14.19,14.19,0,0,1,51.51,33.23Zm10.7.6c-.08.23-.14.51-.47.48s-.21-.33-.23-.53a.72.72,0,0,1,.06-.29c.07-.21.12-.44.37-.4s.31.27.28.51a.91.91,0,0,1,0,.23Zm.71,1.33c-.31,0-.25-.35-.31-.54s.28-.67.48-.65.17.27.25.39c-.08.31,0,.74-.42.79Zm1.14-2a30.64,30.64,0,0,0-1-3.52,9.68,9.68,0,0,0-1.74-3.14c1.31.79,3.12,4.2,2.73,6.66ZM56.29,25.5a5.68,5.68,0,0,0-1.73,1.39,5.31,5.31,0,0,1-1.73,1.5,1,1,0,0,1-.73.09A4,4,0,0,0,53.91,27a5.57,5.57,0,0,1,3.34-2.35,5.17,5.17,0,0,1,2.28.15A11.13,11.13,0,0,0,56.29,25.5Z"/><path id="Path_3232" data-name="Path 3232" class="cls-1" d="M60.81,38a.15.15,0,0,0,.11.2H61a3.17,3.17,0,0,0,.44-.12c0-.16-.11-.22-.22-.23S60.87,37.86,60.81,38Z"/><path id="Path_3233" data-name="Path 3233" class="cls-3" d="M35.4,75.9c0,.41-.08.65.56.65a34,34,0,0,1,4.84.3c1,.14,1.9.29,2.84.51a14,14,0,0,1,2.75.88.25.25,0,0,0,.34-.07h0c.12-.17,0-.26-.12-.34-.29-.21-.56-.43-.86-.62a28.78,28.78,0,0,1-3.35-2.49c-.43-.38-.81-.82-1.26-1.18a29.8,29.8,0,0,1-2.42-2.48c-.63-.65-1.21-1.36-1.84-2.09a15.31,15.31,0,0,0-.73,2.36A23.56,23.56,0,0,0,35.4,75.9Z"/><path id="Path_3234" data-name="Path 3234" class="cls-3" d="M28.27,74.38a3.3,3.3,0,0,0,2.62-3.62A6,6,0,0,1,28.27,74.38Z"/><path id="Path_3235" data-name="Path 3235" class="cls-1" d="M62.28,74.7c-.05,0-.14.08-.11.16a.39.39,0,0,0,.15.16c.11,0,.13-.07.17-.14l.34-.48-.07-.05C62.6,74.46,62.44,74.57,62.28,74.7Z"/><path id="Path_3236" data-name="Path 3236" class="cls-2" d="M37.82,65a5.47,5.47,0,0,0,1.36-2.32A1.2,1.2,0,0,0,39,61.44,3,3,0,0,1,38,64c.38-1.08.77-2.06.12-3.05a4.66,4.66,0,0,1-.32,2.92,4.44,4.44,0,0,1-2.24,1.8,4.84,4.84,0,0,0,2.31-3.23c.11-.66.32-1.41-.31-1.95a7,7,0,0,1-1.15-1.16A10.23,10.23,0,0,1,35,57.12a6.87,6.87,0,0,0-1.39-2.71,2.94,2.94,0,0,1-.35-.44c-.39-.51-.51-1.16-.86-1.68-.62-.92-1.18-1.27-2-.34a7.26,7.26,0,0,1-1,1,1.39,1.39,0,0,0-.62.84c-.05.24,0,.62.1.62.41,0,.8.27,1.21,0s.52-.42.34-.84c.26.27.39.67.75.75s.7,0,1,.15c-.2.09-.38,0-.57,0-.84.1-1.66.34-2.51.4s-1,.5-.86,1.24c0,.21.06.36.38.27a5,5,0,0,1,2.08-.17L28.29,57a.74.74,0,0,0-.58.86l0,.11a1.1,1.1,0,0,1,.06.26c0,.29.09.34.37.27a4.17,4.17,0,0,0,2-.77l-.31.39a1.92,1.92,0,0,1,.7-.19,6.27,6.27,0,0,1-2.38,1.22c-.37.11-.54.38-.42.7a3.38,3.38,0,0,0,1.63,1.78c.12.06.33.15.27-.21a.7.7,0,0,0-.47-.61c-.17-.08-.43-.1-.48-.36.68-.17,1.35.18,2.1,0-.63.61.16.46.26.66-.27.28-.59,0-.92.06.62,2,2.16,3,4,3.8l-.27,0c-.1,0-.27-.07-.31.07s.15.21.26.25a3.18,3.18,0,0,0,1.1.23c-.09.25-.39.18-.44.35.41.67.93.28,1.41.16.3-.1.6-.21.9-.34a2.06,2.06,0,0,1-.66.44c-.63.27-1.26.66-1.88,0a.09.09,0,0,0-.15,0,.17.17,0,0,0,0,.12c.11.3.27.59.6.64a2.52,2.52,0,0,0,1.61-.35A6.45,6.45,0,0,0,37.82,65Zm-1.16-4.75a4.1,4.1,0,0,1-1.45-2Zm-.38,1.18a5.67,5.67,0,0,1-1.92-3c.66,1,1.27,2,1.92,3Zm-2.5-2.32L35.58,62a8.67,8.67,0,0,1-1.8-2.85Z"/><path id="Path_3237" data-name="Path 3237" class="cls-3" d="M28.81,70.64c.23-.59.5-1.17.74-1.75A4.81,4.81,0,0,0,30,66.12c-.19-1.13-.7-2.14-1-3.22a1,1,0,0,0-.34-.61c.16.83.31,1.58.43,2.32a5,5,0,0,1,0,2.22c-.38,1.4-1.52,2.24-2.45,3.21a18.79,18.79,0,0,1-2.23,1.86,2.78,2.78,0,0,1-2.22.91c0,.14.12.16.19.21a8.69,8.69,0,0,0,2,.88,1.5,1.5,0,0,0,1,0A8.1,8.1,0,0,0,28.5,72.1L29.87,71a9.33,9.33,0,0,1-4,3.17c.22,0,.37.16.56.13a4.66,4.66,0,0,0,2.51-1.35,8.89,8.89,0,0,0,1.75-3c.6-1.62.11-3.15-.44-4.69A5.56,5.56,0,0,1,28.81,70.64Z"/><path id="Path_3238" data-name="Path 3238" class="cls-3" d="M32,64.62a5.45,5.45,0,0,1-1.26-.87c.71,1.84.47,3.65.53,5.47a.44.44,0,0,0,.17-.32,35.69,35.69,0,0,1,.65-4C32.16,64.77,32.18,64.68,32,64.62Z"/><path id="Path_3239" data-name="Path 3239" class="cls-1" d="M64.83,71.85c-.92.94-2,1.67-2.92,2.66A7.55,7.55,0,0,0,64.83,71.85Z"/><path id="Path_3240" data-name="Path 3240" class="cls-3" d="M47,78.12a.19.19,0,0,0-.14.09c-.14.39-.42.25-.66.15a25.27,25.27,0,0,0-7-1.49,27.59,27.59,0,0,0-3.63-.19c-.29,0-.35-.1-.34-.36a18,18,0,0,1,.18-1.8,25.69,25.69,0,0,1,.83-4c.14-.51.32-1,.49-1.5a.44.44,0,0,0-.27-.56h0c-.16-.08-.18.15-.21.26-.32,1.25-.66,2.5-1,3.76a20.69,20.69,0,0,0-.56,4.22c0,.55.06.6.62.67.87.1,1.74.27,2.61.33a4.26,4.26,0,0,0,1.38.07l-1.12-.34a5.54,5.54,0,0,1,2,.08c1.79.46,3.52,1.16,5.34,1.51a13.6,13.6,0,0,0,1.56.21.64.64,0,0,0,.64-.49A2.34,2.34,0,0,0,47,78.12Z"/><path id="Path_3241" data-name="Path 3241" class="cls-1" d="M30.59,41.45c.22,0,.46.21.74,0,.93-.84,1.89-1.63,2.86-2.43.45-.38.44-.44.09-.94-.2-.27-.33-.22-.54,0-.61.49-1.23.95-1.85,1.43l-2.57,2A4.16,4.16,0,0,1,30.59,41.45Z"/><path id="Path_3242" data-name="Path 3242" class="cls-3" d="M51.81,65c-1.39-.09-2.76-.3-4.14-.52a33,33,0,0,1-5.17-1.25c-.69-.23-1.37-.47-2-.75-.29-.12-.31.09-.36.22s-.33.38-.07.63.18,0,.25-.08.25-.21.48-.14c.46.2.9.42,1.33.66a28.44,28.44,0,0,0,3.09,1.11,12.19,12.19,0,0,0,3.22.59,7.48,7.48,0,0,0,2.06,0c.41,0,.58.06.42.49-.07.19-.08.4-.14.59s0,.21.09.17c.28-.13.67-.06.81-.43s.23-.66.36-1C52.06,65.06,52,65,51.81,65Z"/><path id="Path_3243" data-name="Path 3243" class="cls-3" d="M50.48,65.6a7.64,7.64,0,0,1-2.24,0,13.07,13.07,0,0,1-2.63-.47,20.29,20.29,0,0,1-4.8-1.85c-.13-.07-.27-.18-.42,0s0,.3.14.39a12.56,12.56,0,0,0,1.06.87A10.59,10.59,0,0,0,45,66.33c.87.24,1.78.33,2.63.62a3,3,0,0,0,1.67.18c1-.24,1.33-.44,1.4-1.24C50.71,65.65,50.66,65.57,50.48,65.6Z"/><path id="Path_3244" data-name="Path 3244" class="cls-3" d="M66.84,67.44l.13.1-1.36,2.38a8.68,8.68,0,0,0,2.08-3.12,5.31,5.31,0,0,0,.43-2.4,18.85,18.85,0,0,0-.52-3,5.7,5.7,0,0,0-4-4.53,1.14,1.14,0,0,0-.92.13A14.67,14.67,0,0,0,59.26,60c-.53.55-1,1.16-1.49,1.75a6.78,6.78,0,0,1,5.06-1.41,7,7,0,0,0-2.18.42,10.74,10.74,0,0,0-4.38,3.11c-.08.09-.2.18-.1.3s.18,0,.28,0c.59-.25,1.18-.51,1.78-.74a7,7,0,0,1,4.53-.21c-.57.05-1.13-.06-1.71,0a13,13,0,0,0-2.81.64,24.89,24.89,0,0,0-3.73,1.85c-.41.23-.86.4-1.32.61.32.11.62.2.89.32a7.68,7.68,0,0,1,2.51,2c0,.06.12.16.13.15.17-.32.2,0,.23.06.31.69.61,1.38.89,2.09.39,1,.76,1.94,1.17,3a10.29,10.29,0,0,1,2.3-5.27A18.09,18.09,0,0,0,59.5,74.5a57.79,57.79,0,0,0,5.81-10.09,23,23,0,0,1-1.44,3.69A38.42,38.42,0,0,1,59.54,75c-.17.21-.44.43-.33.8A28.29,28.29,0,0,0,66.84,67.44Zm-9-4.1A8.52,8.52,0,0,1,62,61.22C60.59,62,59.17,62.6,57.81,63.34Zm2.89-1.17a5,5,0,0,1,3-.83c-1,.24-2,.52-3,.83Zm2-.14a2.69,2.69,0,0,1,1.7-.44Zm-.4,4.14a3.39,3.39,0,0,1,1-1.17c-.31.41-.64.8-1,1.18Zm1-3.88a2.68,2.68,0,0,1,1.65-.23Zm3.5,1.16a14.17,14.17,0,0,1-1.36,5.27C65.76,67,66.19,65.19,66.73,63.45Z"/><path id="Path_3245" data-name="Path 3245" class="cls-4" d="M54.23,65.29c1.3-1.77,2.39-3.68,3.81-5.36a13.56,13.56,0,0,1,2-2,23.67,23.67,0,0,1,3.92-2.3,19.35,19.35,0,0,0-3.43.94,12.06,12.06,0,0,1,3.86-1.43c-.82-.34-1.62-.43-2.33-.72a1.6,1.6,0,0,0-1.43.07A14,14,0,0,0,55.52,59c-1,1.33-1.78,2.84-2.68,4.26-.41.66-.7.91-1.25.71-1.21-.44-2.48-.64-3.71-1s-2.49-.74-3.77-1c-1.08-.21-2.18-.3-3.27-.42-.42,0-.85-.09-1.33-.1A2.6,2.6,0,0,1,39.8,63a2.24,2.24,0,0,0,.16-.5c.08-.41.23-.52.63-.41s.85.22,1.26.36a31.68,31.68,0,0,0,10.54,2.09c.38,0,.41.18.28.49s-.41.8-.65,1.18a2.74,2.74,0,0,0,.56-.06A3.08,3.08,0,0,0,54.23,65.29Zm8.7-10.21c-1.35.48-2.72.89-4.07,1.36a7.43,7.43,0,0,1,4.07-1.36Zm-6.37,5.81c-.85,1.42-1.74,2.81-2.54,4.26a10.2,10.2,0,0,1,2.54-4.26Z"/><path id="Path_3246" data-name="Path 3246" class="cls-6" d="M41.58,65.11a16.79,16.79,0,0,1-1.93-1.84c-.37.58-.73,1.14-1.08,1.72a4.89,4.89,0,0,1-1.9,2c-.25.12-.21.24-.08.45a24.4,24.4,0,0,0,2.61,3.21c1,1,1.94,2,3,3,.79.7,1.59,1.39,2.44,2s1.8,1.14,2.65,1.79a9.72,9.72,0,0,0,3.77,1.89.76.76,0,0,0,.78-.23A3.35,3.35,0,0,0,52.44,78a5.57,5.57,0,0,0,.7-2.52A8.81,8.81,0,0,1,53.21,74a6.36,6.36,0,0,0,0-2.42A2.87,2.87,0,0,0,51,69.16l.86,1c-.51-.38-1-.79-1.49-1.18a8.85,8.85,0,0,0-4.36-2A10.16,10.16,0,0,1,41.58,65.11ZM49,77.68c1.07,0,2.17.52,3.22-.37-.44,1-1.46,1.15-3.22.37Zm3-2.83a2.48,2.48,0,0,1-1.62,1.05A5.25,5.25,0,0,1,52,74.85Zm-2.06.07a1.34,1.34,0,0,1-1,.59,2.92,2.92,0,0,1,1-.59ZM47,74a2.79,2.79,0,0,1-1.61.24C46,74,46.53,74.21,47,74Zm-3.23-1a13.85,13.85,0,0,1,2.56.36c-.62.56-2.27.39-2.56-.36Z"/><path id="Path_3247" data-name="Path 3247" class="cls-6" d="M23,72.12c1.09-.69,2.17-1.37,3.23-2.1A8.11,8.11,0,0,0,28,68a3.63,3.63,0,0,0,.64-2.94,21.76,21.76,0,0,1-.35-2.66,2.81,2.81,0,0,0-.71-1.74c-.39-.47-.8-1-.4-1.65a.39.39,0,0,0-.09-.45c-.57-.61-1.14-1.21-1.67-1.84s-1.27-1.43-1.85-2.19a5.23,5.23,0,0,0-1.44-1.45c-.22-.13-.37-.16-.4.19a8.86,8.86,0,0,1-.18,1.44c-.39,1.7-.83,3.4-1.2,5.11A20,20,0,0,0,19.74,64a4,4,0,0,0,.12,1.29A6.28,6.28,0,0,0,20.23,67c.71,1.61,1.41,3.22,2,4.88C22.39,72.24,22.61,72.33,23,72.12Zm3-3.24a1.35,1.35,0,0,1-1.46.81A3.63,3.63,0,0,1,25.93,68.88Zm-1.88.36a1.61,1.61,0,0,1,.88-.42.87.87,0,0,1-.88.42Zm-.46-.54a3.66,3.66,0,0,1,1.4-.45,1.52,1.52,0,0,1-1.4.46ZM23.31,68c.37-.21.78-.1,1.15-.2a1,1,0,0,1-1.16.2Zm-.65-.72a2.79,2.79,0,0,1,1.66-.21,1.38,1.38,0,0,1-1.67.21Zm-.31-.74a6.26,6.26,0,0,1,1.36.18,1.63,1.63,0,0,1-1.36-.19ZM23.59,66a2.27,2.27,0,0,1-1.33-.29c.43.14.9.12,1.32.29Z"/><path id="Path_3248" data-name="Path 3248" class="cls-1" d="M28.45,43.82a.61.61,0,0,0,.25-.53A2.58,2.58,0,0,1,28.87,42c.1-.23.39-.3.42-.57a11.76,11.76,0,0,1-1.15.85,1.09,1.09,0,0,0-.54,1.1A1.81,1.81,0,0,1,27,44.79a13.31,13.31,0,0,1-2.25,1.38c-.25.16-.55.24-.81.41s-.82.51-1.25.22c-.19-.12-.3-.06-.45-.08a.53.53,0,0,0,.15-.75l-.06-.07c-.2-.22-.34.15-.53.2h-.09c0-.05.05-.12.1-.14.53-.25.45-.62.2-1a.28.28,0,0,1,0-.13c0-.31-.21-.3-.44-.23,0-.14.31-.24.12-.4s-.25.07-.36.15L19.08,46c-.59.46-1.18.92-1.76,1.39-.07.06-.21.13-.13.25s.19,0,.28,0,.08,0,.13,0c-.19.29.13,1,.53,1.25a.73.73,0,0,0,.27.8c0,.07-.08.15-.07.2a7.29,7.29,0,0,1,.27,2.18c.26-.2.47-.34.65-.5l5.13-4.31Z"/><path id="Path_3249" data-name="Path 3249" class="cls-1" d="M21.6,72.08a7,7,0,0,0-.54-1.53A2.76,2.76,0,0,0,21.6,72.08Z"/><path id="Path_3257" data-name="Path 3257" d="M29.32,41.44h0v0h0Z"/><path id="Path_3258" data-name="Path 3258" d="M47.91,34.82l0,.09Z"/><path id="Path_3259" data-name="Path 3259" d="M63.31,77.14a.73.73,0,0,0,.08-1,.49.49,0,0,0-.13-.12c-.17-.19-.23-.35,0-.53A8.86,8.86,0,0,0,64.28,74c.74-1.12,1.25-2.39,2-3.47a19,19,0,0,0,2-3.64,4.11,4.11,0,0,0,.33-1.76,10.13,10.13,0,0,0-.45-3c-.46-1.4-.46-2.9-1-4.28a5.5,5.5,0,0,0-3.4-3.33,19.76,19.76,0,0,1-3.65-1.68c-.18-.11-.35-.22-.29-.43a3.15,3.15,0,0,0,0-.92,3.56,3.56,0,0,0-.58-2,1.44,1.44,0,0,1-.17-1.21A14.91,14.91,0,0,1,60.5,45c.26-.51.48-1,1.12-1,0,0,.07-.06.11-.08a4.15,4.15,0,0,0,1.76-1.83,4.05,4.05,0,0,1,1.17-1.46.92.92,0,0,0,.42-1.22L65,39.23A.21.21,0,0,1,65,39c.6-.68.33-1.38,0-2a2.79,2.79,0,0,1-.21-1.4c0-.63.17-1.25.17-1.88a18.53,18.53,0,0,0-.06-2.58,9,9,0,0,0-1.63-4.19c-.63-.88-1.44-1.62-2-2.55a3.62,3.62,0,0,0-4.54-1.71,11.87,11.87,0,0,0-2.6,1.16,14.64,14.64,0,0,0-3.77,2.71,11.65,11.65,0,0,0-2.87,5.11.72.72,0,0,1-.49.58,6.71,6.71,0,0,0-2.88,1.89.6.6,0,0,0-.12.64.89.89,0,0,0,.61.51,11.05,11.05,0,0,0,2.68.45c.38,0,.72,0,.55.54a.84.84,0,0,0,0,.39c.1.42.23.87-.21,1.2a.6.6,0,0,0-.14.21,6.1,6.1,0,0,0-1.1,2.64,6.86,6.86,0,0,0,1.06,3.92,4.32,4.32,0,0,1,.56,1.59,12.4,12.4,0,0,0,.14,2,.34.34,0,0,1-.16.46c-.9.53-1.78,1.07-2.71,1.54a3.41,3.41,0,0,1-2.15.33,2.67,2.67,0,0,0-2,.15.38.38,0,0,1-.33,0,4.76,4.76,0,0,0-2.31-.12,11.81,11.81,0,0,0-4.65,2c-.75.52-.74.5-1.2-.33-.26-.45-.48-1-1-1.18s-.44-.44-.38-.75c.18-.84.4-1.67.6-2.51a.61.61,0,0,1,.13-.32,5.28,5.28,0,0,0,1.38-2.73,2.62,2.62,0,0,0-.24-2,2.73,2.73,0,0,0-1.32-.84c-.27-.13-.22-.16-.05-.3l1.05-.8c.69-.51,1.21-1.2,1.89-1.72.2-.16.3-.19.52,0a2.27,2.27,0,0,0,1.75.55,4.19,4.19,0,0,0,3.5-3.69A2.19,2.19,0,0,1,41,34.41a.62.62,0,0,0-.16-.81,1.5,1.5,0,0,0-1.65.14A10.41,10.41,0,0,1,37,35.19c-.32.2-.41.06-.41-.27a2.16,2.16,0,0,1,1.2-2c.77-.44,1.53-.92,2.31-1.35.29-.17.27-.41.24-.65a.44.44,0,0,0-.42-.39,1.49,1.49,0,0,1-.93-.43,3.32,3.32,0,0,0-3.83-.32,5.84,5.84,0,0,0-2.67,4.84,1.73,1.73,0,0,1-.7,1.36l-2.3,1.77c-.25.2-.48.37-.69-.05a1.24,1.24,0,0,0-.28-.28,2.34,2.34,0,0,0-3.18,0,3.62,3.62,0,0,0-.82,1.19,5,5,0,0,1-2,2,9.42,9.42,0,0,1-1.2,1,3.18,3.18,0,0,0-1.7,2,6.18,6.18,0,0,0-.07,1.14c0,.37,0,.73-.41,1-.65.45-1.27.94-1.88,1.44-.19.15-.26.13-.43,0a3.62,3.62,0,0,0-1.59-.79,4.15,4.15,0,0,0-4.3,1.23A8.46,8.46,0,0,0,9,52.4c0,.34,0,.67-.22,1a1.06,1.06,0,0,0,.16,1,1.81,1.81,0,0,0,1.92-.17,17.18,17.18,0,0,1,2.39-2c.2-.12.4-.29.63-.06A.64.64,0,0,1,14,53a2.86,2.86,0,0,1-.72.83c-1.21.89-2.26,2-3.47,2.87-.26.2-.22.54-.14.85s.27.35.53.34a1.18,1.18,0,0,1,.54.17,6.21,6.21,0,0,0,.81.42,3.61,3.61,0,0,0,2.34.09,7,7,0,0,0,1.79-.54,6.45,6.45,0,0,0,2.89-4.81c.05-.42,0-.92.39-1.21a5.27,5.27,0,0,0,.51-.43c.47-.41.95-.81,1.45-1.23.21.58,0,1.23.53,1.65,0,0,0,.16,0,.24a4.32,4.32,0,0,0-.19,2.11.47.47,0,0,1-.05.26c-.22.77-.47,1.53-.65,2.31A42.57,42.57,0,0,0,19.38,63a14.83,14.83,0,0,0,.17,3.82c.26,1.4.91,2.68,1.17,4.1a4.47,4.47,0,0,0,3.61,3.65c.63.16,1.27.17,1.89.33a3.52,3.52,0,0,0,1.53.34,4.77,4.77,0,0,0,2.56-1c.07-.06.13-.17.22-.09a.26.26,0,0,1,0,.24,1,1,0,0,0-.07.57,19.87,19.87,0,0,0,.38,3.36c.14.76.38,1.5.56,2.25a.61.61,0,0,0,.05.12h.89a1.77,1.77,0,0,0,0-.23,17.46,17.46,0,0,0-.07-1.77,30.32,30.32,0,0,1,.1-3.69c0-.45.08-.91.11-1.36a13,13,0,0,0,.08-2.49c-.88,1.78-.7,3.74-.89,5.64a4.55,4.55,0,0,1-.12-1c.16-1.52.22-3,.43-4.57.13-.93.24-1.85.44-2.77.14-.67.46-1.29.55-2a8.27,8.27,0,0,0-.78,2.47,29.09,29.09,0,0,0-.56,4.35,1.6,1.6,0,0,1-.13.5A29,29,0,0,1,33,65.12a.91.91,0,0,1,.23.74c.34-.09.51,0,.53.38A1.3,1.3,0,0,0,35,67.57a1.32,1.32,0,0,0,.34,0c.34-.07.44.13.56.29s.36.35.2.66a11,11,0,0,0-.89,2.68c-.28,1.23-.51,2.46-.67,3.7-.1.76-.2,1.52-.28,2.27-.07.58,0,.73.58.8.88.11,1.75.22,2.63.28,1.14.07,2.27.27,3.42.33a7.6,7.6,0,0,1,2.21.48,11.25,11.25,0,0,0,3.7.88c.62,0,1.05-.16,1.2-.84a5.2,5.2,0,0,0,1.66.84,1.18,1.18,0,0,1,.74.53.71.71,0,0,0,.19.23h.87a1.28,1.28,0,0,1-.37-.57,1.38,1.38,0,0,0,1.67-1l0-.19c.27-1,.7-2,.9-3v.71a.85.85,0,0,0,.08-.35,10.46,10.46,0,0,0,0-4.49,4.16,4.16,0,0,0-2.19-3c-.67-.34-1.34-.7-2.05-1-.07,0-.23,0-.19-.19s.12-.15.24-.15a8.78,8.78,0,0,0,2.22-.47,2.62,2.62,0,0,1,1.46-.19,6.08,6.08,0,0,1,3.21,2.38,13.25,13.25,0,0,1,1.51,3.84c.33,1,.25,2,.56,3V75a3,3,0,0,1,.11.66A1.65,1.65,0,0,1,58.34,77,4.89,4.89,0,0,1,56,78.63a5.14,5.14,0,0,0,.43-3,5.93,5.93,0,0,1-3.16,5.07h1.5a1.44,1.44,0,0,0,.49-.49,2.49,2.49,0,0,1,1.34-1,3,3,0,0,0,.45-.18,6.64,6.64,0,0,0,2-1.43,6.44,6.44,0,0,1-.48,1.19,9.57,9.57,0,0,0-.47,1,2.59,2.59,0,0,0-.33.93h0A47.41,47.41,0,0,1,60.12,76c-.7,1.52-1.2,3.11-1.89,4.68h.21a.17.17,0,0,0,0,0c.37-1.08.8-2.13,1.26-3.17.35-.77.52-1.66,1.31-2.18l.82,1.19a.31.31,0,0,1,0,.43c-.5.61-1,1.24-1.45,1.87a7,7,0,0,0-1.07,1.91h.07a10.32,10.32,0,0,0,.6-1,29.22,29.22,0,0,1,1.92-2.51.57.57,0,0,0,.11-.81l0,0c-.25-.32-.45-.69-.69-1-.09-.12-.11-.17,0-.28s.19,0,.24.07a11.43,11.43,0,0,0,1.22,1.29.32.32,0,0,1,0,.44l0,0c-.28.33-.55.65-.81,1A20.41,20.41,0,0,0,60,80.66h.73a.41.41,0,0,0,.07-.11A20.72,20.72,0,0,1,63.31,77.14ZM65.68,56A1.62,1.62,0,0,1,65,56a2.54,2.54,0,0,0-1.38.2,12.13,12.13,0,0,0-3.43,2.23,35.77,35.77,0,0,0-4.13,5,10.19,10.19,0,0,1-1.53,1.81c.33-.49.67-1,1-1.47a39.32,39.32,0,0,1,2.85-3.93,12.68,12.68,0,0,1,3.16-2.68,25.24,25.24,0,0,1,2.9-1.44C65.06,55.39,65.21,55.43,65.68,56ZM59.5,54.45c.13-.25.23-.43.31-.6.27-.52.53-.51.9,0,.13,0,.3-.05.42.16a16.26,16.26,0,0,0-1.82.91c.32-.37.8-.51,1.11-.88Zm-.44-3.75A4.76,4.76,0,0,1,59,53.1a7.42,7.42,0,0,1-1.45,2.37A31.29,31.29,0,0,1,55,57.78c-.19.18-.2.06-.28-.11a8.63,8.63,0,0,1-.36-1.75A4.3,4.3,0,0,0,53,53.57a10.07,10.07,0,0,0,3-.75,9.88,9.88,0,0,0,2.18-1.09,1.13,1.13,0,0,0,.4-1.23,2.7,2.7,0,0,1,.06-1.41,4.52,4.52,0,0,1,.46,1.61Zm-9.2,10.57a11.65,11.65,0,0,1-1.52.38,5.78,5.78,0,0,1-1.8-.32,4,4,0,0,0-.47-.11c-.19,0-.49,0-.51-.14a.73.73,0,0,1,.23-.64,6.91,6.91,0,0,0,.84-1,3.37,3.37,0,0,0,.58-1.85,4.49,4.49,0,0,1,.11-1,1,1,0,0,1,1.19-.79l.13,0a4.12,4.12,0,0,0,3.65-1c.29-.25.47-.23.71,0A3,3,0,0,1,53.64,56a10,10,0,0,0,.77,2c.38.57.12.85-.18,1.21a17.18,17.18,0,0,0-2.34,3.69c-.07.14-.09.32-.34.2a20,20,0,0,0-3-1.31,5.67,5.67,0,0,0,3-1.05c-.55.18-1.1.36-1.66.51Zm-.24-8.35A3.82,3.82,0,0,0,50.28,51c.31.46.49.5,1,.25a23.57,23.57,0,0,0,3-1.62,25.36,25.36,0,0,1,3.15-1.73c0,.28-.29.32-.44.46l-.45.4a6.73,6.73,0,0,0,2.29-1.21c-.17.47-.33.89-.48,1.32s-.26.8-.36,1.21a2.56,2.56,0,0,1-1.08,1.46,10.33,10.33,0,0,1-3.51,1.63.82.82,0,0,1-.27,0,.69.69,0,0,0-.77.45A2.7,2.7,0,0,1,50.62,55c-.49.18-1,.3-1.5.48-.27.1-.37.11-.41-.24a5.87,5.87,0,0,0-.57-2.18.9.9,0,0,1,.2-1.12,2.21,2.21,0,0,1,1.52-.93,6.58,6.58,0,0,0-.24,1.87ZM64.29,40.17c-.16.13-.37.19-.5.45-.17-.63-.27-1.18-.89-1.39-.08,0-.12-.12-.16-.21a10.15,10.15,0,0,0-1.88-2.54s0-.07,0-.17l1.32.66s0,.05.06.06c1.18.29,1.63,1.31,2.2,2.21a.62.62,0,0,1-.07.89l0,0Zm-2.87-2.05a3.6,3.6,0,0,1-.44.12.16.16,0,0,1-.18-.14.17.17,0,0,1,0-.07c.06-.17.24-.14.38-.14s.19.07.23.23ZM45.48,34a13,13,0,0,0-1.26.56,1.37,1.37,0,0,1,.62-.68,11.88,11.88,0,0,1,4-1.24,15.7,15.7,0,0,1,8.24,1l1.52.64a8.1,8.1,0,0,0-4.31-2A11.92,11.92,0,0,0,51.11,32a15.48,15.48,0,0,0-3.17.42h-.28l1.27-.64,0-.07-1.19.2c.3-2.25,3.32-6.2,5.58-7.25a14.09,14.09,0,0,0-.94,1.47,6.14,6.14,0,0,0-.53,1.67c1.52-3.19,2.23-3.54,3.47-4.18a5.79,5.79,0,0,0-1.81,2,8.78,8.78,0,0,1,2.56-1.88,7,7,0,0,1,2.69-.7,2,2,0,0,1,1.32.61,4.78,4.78,0,0,1,1.3,1.56c-.46-.18-.83-.44-1.27-.33a7.05,7.05,0,0,1,3.09,2.88,8.71,8.71,0,0,1,1.11,3.12,15.92,15.92,0,0,1,.06,2.93c0,.79-.16,1.58-.17,2.41a2.64,2.64,0,0,0-1.4-.36,8.45,8.45,0,0,1,1.94,2.27.23.23,0,0,1-.32,0v0a8.39,8.39,0,0,0-3.21-1.94c-1.77-.71-3.5-1.52-5.33-2a22.94,22.94,0,0,0-4.34-.83,14.19,14.19,0,0,0-6,.74Zm2.39.94,0-.09c.12-.41-.22-1,.55-1.21-.16.46-.41.81-.55,1.21l0,.09Zm-.56,7.74c-.08.2,0,.4,0,.62a4.06,4.06,0,0,1-.28-3.62,7.52,7.52,0,0,1,1-2,.39.39,0,0,0,.06-.3,14.86,14.86,0,0,1,.1-1.63.75.75,0,0,1,.85-.65l.19,0c.42.18.73.56,1.2.62a2.37,2.37,0,0,0-1.32-1.4,11.12,11.12,0,0,1,5.64.14c1.44.47,2.89.9,4.35,1.32a1.78,1.78,0,0,1,1.41,1.6c-.1.07-.19-.19-.24,0s.18.3.36.38c-.14.18-.4.29-.46.53s.16.42.3.61.19.27-.11.35.14.16,0,.34a.32.32,0,0,1-.35-.06s0-.18-.12-.09-.17.16-.07.22c.38.24,0,.49,0,.73,0,.06-.11.14-.09.18.21.43.24.53,0,.82-.07.1-.11.15,0,.18s.26.15.25,0c0-.36.52-.45.37-.88s.14-.5.43-.62a4.63,4.63,0,0,0,.71-.43.9.9,0,0,1,.92-.07.85.85,0,0,1,.44.8A5.15,5.15,0,0,1,62.79,42c-.29,1-1.17,1.35-2,1.67-.12.05-.21,0-.56-.22-.26.73-.51,1.45-.78,2.18a2.87,2.87,0,0,1-1.78,1.59,30.1,30.1,0,0,0-3.18,1.67c-.12.07-.23.19-.43.13.19-.33.46-.59.65-.93a2.82,2.82,0,0,0-.36.24.53.53,0,0,1-.6.12c-.24-.11.14-.29,0-.44a.35.35,0,0,0-.25.22c-.26.51-.84.66-1.18,1.07-.12.15-.36,0-.46.17-.1-.13,0-.29-.06-.43-.25.2-.67,0-.79-.36a3.7,3.7,0,0,1-.09-1.05c0-.15.06-.21.21-.2a.47.47,0,0,0,.45-.15,3.44,3.44,0,0,0-1.77-.2,1.48,1.48,0,0,0,.74.34c.11,0,.24,0,.19.17-.18.41-.31.87-.77,1.06,0,0-.53.14-.51-.29-.14,0-.19.17-.26.24-.4-.43-.17-1-.27-1.47a5.16,5.16,0,0,1-.15-1.36,8.27,8.27,0,0,0,0-2.33,1.44,1.44,0,0,1,.15-.71.45.45,0,0,1,.12.06c.19.22.08.46,0,.7A4.9,4.9,0,0,0,49,45.3,2.09,2.09,0,0,0,51.43,47a2,2,0,0,0,.9-.4,6.1,6.1,0,0,0,2.11-2.42,1.16,1.16,0,0,1,.34-.53A15,15,0,0,1,53.36,48a2,2,0,0,0,1-1.79,3.61,3.61,0,0,1,.66-1.87,5.26,5.26,0,0,0,.36-1.75c0-.13-.05-.18-.18-.18A2.62,2.62,0,0,1,54.06,42a6.4,6.4,0,0,0-1-.28,5,5,0,0,0-1-.26c-.14,0-.33-.1-.39,0s.06.28.2.36.12,0,.1.12c-.56.22-1.13.72-1.63-.12.15-.16.53-.08.64-.44a1.19,1.19,0,0,1-.87,0c-.56-.24-1,.11-1.5.14s-.47.28-.39.69a4.18,4.18,0,0,1,.13,2.64Zm3.62,2.18a1.91,1.91,0,0,1,.92,0,2.59,2.59,0,0,0,2-.86c.27-.23.48-.52.76-.75a1.63,1.63,0,0,1-.5,1A9.25,9.25,0,0,1,52.5,46a1.93,1.93,0,0,1-2.72,0,1.85,1.85,0,0,1-.54-1.14,4,4,0,0,1,.18-2,9.25,9.25,0,0,1,.44,1.14c.1.39.38.51.69.64.1,0,.46-.17.29.23,0,0,0,0,.09,0ZM53.4,44a4,4,0,0,1-2.91.3.44.44,0,0,1-.36-.28c-.16-.36-.35-.71-.53-1.06l.06-.09a3.56,3.56,0,0,0,1.9.29c.4,0,.73.28,1.15.28a7,7,0,0,0,1.63-.22A7,7,0,0,1,53.4,44Zm-1.65-1A4.87,4.87,0,0,1,50,42.58c-.2-.11-.5,0-.75,0s-.38-.07-.38-.22.22-.13.36-.13a2.12,2.12,0,0,1,.83.08,2.6,2.6,0,0,0,1.74.12c.59-.17,1.15.25,1.73.38.19,0,.43-.05.58.17a4.53,4.53,0,0,1-2.34.08Zm-5.08,7a5.81,5.81,0,0,0,1.23-.84c.24-.22.41-.29.46.12a.55.55,0,0,0,.37.5,4.46,4.46,0,0,1,1.27.82,12,12,0,0,0-2.2.54.77.77,0,0,0-.52,1l.06.15c.2.64.59,1.17.84,1.78a1.58,1.58,0,0,1,.14.77,6.2,6.2,0,0,0-4-3.78,14.39,14.39,0,0,0,2.35-1Zm-2.42,4.77c0,.11-.08.27.13.32s.23-.14.26-.27a6.7,6.7,0,0,1,.84-2c.34-.52.47-.54,1-.15a6.49,6.49,0,0,1,1.72,2.72c.05.11.07.2-.12.25-.81.22-1.06.58-1.11,1.46A3.71,3.71,0,0,1,46,59.77,2.94,2.94,0,0,0,45.16,61c0,.17-.3.11-.44.08a27.09,27.09,0,0,0-3.81-.43c-.2,0-.36,0-.24-.3a27.17,27.17,0,0,1,2.59-5.24c.22-.32.45-.64.75-1.05a4.11,4.11,0,0,0,.12,2.93,8.27,8.27,0,0,1,0-3.25,3.88,3.88,0,0,1,.11,1.12Zm-3.07-3.36a3.08,3.08,0,0,1,.88-.63c.15-.07.28-.16.31.1.45-.27.9,0,1.34,0a.11.11,0,0,1,.08.08c0,.5.3.92.31,1.4a.53.53,0,0,1-.19.41c-.12.13-.3.21-.29.42h0l.5-.43c0,.3.14.57-.12.82A12.31,12.31,0,0,0,40.86,59c-.17.52-.38,1-.58,1.52-.11.28-.07.4.27.49a8.62,8.62,0,0,0,1.53.14,27.5,27.5,0,0,1,7.76,1.65l1.6.59A.38.38,0,0,0,52,63.2l0,0c.56-1,1.22-1.92,1.86-2.86a27.75,27.75,0,0,1,3.54-4,1.7,1.7,0,0,1,.18-.06c-.51.6-1,1.16-1.46,1.69a19,19,0,0,0-2.48,3.62,23,23,0,0,1-1.26,2c-.21.31-.5.26-.8.18-2.08-.56-4.15-1.13-6.24-1.68a26.35,26.35,0,0,0-3.76-.63,9.32,9.32,0,0,1-1.75-.14c-.23-.07-.3-.09-.24-.37A18.74,18.74,0,0,1,41,57.07a1.7,1.7,0,0,0,.09-.24,3.51,3.51,0,0,0-.71,1.28,13,13,0,0,0-1,3c0,.1-.08.27-.26.11s-.24-.14-.3-.25c-.41-.86-1.25-1.35-1.83-2.06a.6.6,0,0,1-.09-.79,28.08,28.08,0,0,1,2-3.52c.05-.07.12-.13.09-.23a6.32,6.32,0,0,0-1.12,1.55,22.27,22.27,0,0,0-1.22,2.32c0,.06,0,.24-.16.17s0-.17,0-.26a10.06,10.06,0,0,1,1.18-2.19,24.13,24.13,0,0,1,3.45-4.47ZM33.78,53A11.44,11.44,0,0,1,38.65,51a3.53,3.53,0,0,1,2.22.25A20.32,20.32,0,0,0,36.29,58a4.29,4.29,0,0,1-.86-1.67,4.64,4.64,0,0,0-1.69-2.61c-.3-.26-.37-.41,0-.7ZM31.1,49.4A4.79,4.79,0,0,0,31,50.53a.82.82,0,0,1-.47.64,10.48,10.48,0,0,0-1.94,1.94c-.07.08-.08.25-.23.22s-.06-.21-.1-.31a12.94,12.94,0,0,0-1.9-3.6c-.12.19.06.33.07.49a2.35,2.35,0,0,0,.14.45A16,16,0,0,0,28,54a.78.78,0,0,1,0,.82c-.2.29-.09.63-.11,1a3.39,3.39,0,0,1,0,.45.3.3,0,0,1-.23.24c-.13,0-.12-.11-.16-.17A31.61,31.61,0,0,0,24,52.42c-.25-.24-.52-.46-.79-.69a5.43,5.43,0,0,0,1.22,1.91c.79.82,1.6,1.6,2.4,2.4l.1.1c.55.27.55.67.32,1.18-.14.31.05.65.06,1.08-.89-1.12-1.75-2.15-2.63-3.17a16.11,16.11,0,0,0,1.83,1.44c-.26-.36-.54-.71-.83-1.05a25.13,25.13,0,0,0-3.27-3,1.85,1.85,0,0,1-.92-1.69,3.38,3.38,0,0,0,0-.84c0-.2.09-.25.17-.32.62-.54,1.25-1.07,1.88-1.6l2.41-2c.89-.73,1.77-1.45,2.64-2.2.18-.15.27-.1.31.08a2.6,2.6,0,0,0,.3.63c.29.54-.1.87-.39,1.24a5.85,5.85,0,0,0-.45.54A1.06,1.06,0,0,0,28.6,48a.54.54,0,0,0,.16.1,2.93,2.93,0,0,0,1.62.48c.42,0,.69-.29,1.1-.45-.13.47-.22.9-.37,1.32Zm1-7.06a1.48,1.48,0,0,1,.93,1.72,6.43,6.43,0,0,1-2,3.95.39.39,0,0,1-.11.06s0,0-.07,0a2.12,2.12,0,0,1,.37-.61,13.89,13.89,0,0,0,1.15-2.11.48.48,0,0,0,0-.42c-.12-.2-.28-.32,0-.55s-.24-.56-.58-.57a10.61,10.61,0,0,0-1.78.08h1.44a.78.78,0,0,1,.6.23.73.73,0,0,1,.09.09c-.27.46.36.87,0,1.38A23.19,23.19,0,0,1,30.67,48a.61.61,0,0,1-.59.28,2.15,2.15,0,0,1-1.45-.73.77.77,0,0,1,.05-1,5.18,5.18,0,0,1,.57-.67,1.31,1.31,0,0,0,.42-1.1c.29.39.52.75,1,.8a1.87,1.87,0,0,0,1.19-.33A1.68,1.68,0,0,1,30,44.9a1.65,1.65,0,0,0,1.58-.13,2,2,0,0,1-2.42-1.31A1.89,1.89,0,0,1,29.38,42c.25-.35.67-.19,1-.15a5.44,5.44,0,0,1,1.76.49Zm7.25-11.43c.06-.2.21-.17.36-.16A.34.34,0,0,1,40,31a.3.3,0,0,1-.19.36c-.81.43-1.63.85-2.41,1.34a2.43,2.43,0,0,0-1,2.73.67.67,0,0,0,.79.54,1,1,0,0,0,.16-.06A9.77,9.77,0,0,0,40,34.36a1.86,1.86,0,0,1,.65-.31,1.29,1.29,0,0,1-.66.68,18.15,18.15,0,0,1-2.85,1.61.51.51,0,0,1-.69-.18l0-.07a2.76,2.76,0,0,1,.81-3.74c.62-.41,1.3-.72,1.88-1.19.1-.08.2-.14.24-.25Zm-1.71-1.13c.56.09.94.56,1.39.86.25.16-.05.3-.18.37-.64.38-1.27.78-1.88,1.21-1.2.87-1.26,1.53-1.1,2.92a1.8,1.8,0,0,0,.61,1.23.6.6,0,0,0,.64.12c1.12-.37,2-1.14,3.15-1.56-.2,2-1.14,3.8-3.31,4.19a2.29,2.29,0,0,1-2.19-1,4.7,4.7,0,0,1-1.08-2.82,6.17,6.17,0,0,1,1.69-4.79,2.54,2.54,0,0,1,2.26-.74Zm-5,5.38a9.49,9.49,0,0,1,.62-2.79A5.41,5.41,0,0,1,35.17,30,3.33,3.33,0,0,1,36,29.7a5.35,5.35,0,0,0-2.43,3.79,6.8,6.8,0,0,0-.08,1.19.8.8,0,0,1-.82.61.11.11,0,0,1-.07-.13h0Zm-3.21,3c1.11-.85,2.24-1.69,3.36-2.53a2.88,2.88,0,0,1,.56-.2c-.26.28-.5.4-.62.63.3,0,.47-.31.72-.44.2.33.12.7.25,1,.06.14,0,.26-.15.34l-4.21,3.22c.05-.43.23-.8.08-1.19-.08-.2.05-.37.16-.52-.11-.08-.24.21-.33,0s.08-.25.18-.33Zm3-.09a5.73,5.73,0,0,1,.75-.45c.08,0,.2-.23.33,0s.12.3,0,.43c-.35.29-.69.6-1.06.87-1.53,1.12-3,2.29-4.53,3.46a1,1,0,0,1-.23.13c-.25-.45-.12-.71.29-1Q30.2,39.7,32.46,38Zm-5.18,2.82H28.4a3.7,3.7,0,0,1-.36.33c-.58.43-.58.43-.76-.33Zm-2.36-1.27c-.26,0-.47.19-.76.08.53-.59.78-1.35,1.33-1.91a2,2,0,0,1,2.74,0,2.21,2.21,0,0,1,.81,1.5.9.9,0,0,1-.38,1,1.3,1.3,0,0,1-1.4.13,1.11,1.11,0,0,1-.43-1.22v0c.2-.89.09-1-.83-.89-.2,0-.49,0-.64.3a3,3,0,0,1,1-.23c.48,0,.54.08.44.55A2.1,2.1,0,0,0,26.72,40c-.36-.45-.75-.08-1.09-.24a2.13,2.13,0,0,1,1.48,2.11q0,.84.06,1.68a1.48,1.48,0,0,1-1.23,1.49,7.69,7.69,0,0,0-.56-2.63A2.66,2.66,0,0,0,23,40.94l-.31,0,0,0a6.72,6.72,0,0,1,2.23-1.32Zm-2.39,1.54a2.58,2.58,0,0,1,1.82.62,4.29,4.29,0,0,1,1.15,2.41,1.44,1.44,0,0,1-.34,1.46,1.54,1.54,0,0,1-.74.35,2,2,0,0,0-.4-2.4,15.31,15.31,0,0,0-1.25-1c-.34-.28-.69-.55-1.06-.84.31-.19.41-.58.82-.6Zm-1.68,1.17a.66.66,0,0,1,.93-.17l.13.12c.58.49,1.16,1,1.75,1.49a1.53,1.53,0,0,1-.59,2.83c-.18.06-.24-.09-.28-.26-.08-.43.13-.83.1-1.25a2.07,2.07,0,0,0-1.07-1.33.65.65,0,0,0-.48.17l-1.2.8a3.21,3.21,0,0,1,.71-2.4Zm1.78,3.38a9.5,9.5,0,0,1-.46-1.26c.54.24.67.64.47,1.26Zm-12.5,8.59H9.43a.42.42,0,0,1-.4-.42.36.36,0,0,1,0-.1c0-.2.28-.1.44,0,.31.08.71,0,.63.57Zm0-1.19c0,.2.05.43-.3.39s-.52,0-.52-.42A8.65,8.65,0,0,1,11,47.9a3.59,3.59,0,0,1,2.13-1.32,6.5,6.5,0,0,0-3,4.66,11,11,0,0,0-.08,1.82Zm1.7,2.43a19.72,19.72,0,0,0,2.34-2.13c.23-.32.38-.5.8-.38a.79.79,0,0,0,.84-.31,1.84,1.84,0,0,1-.63,1.12c-.75.86-1.75,1.44-2.53,2.28a2.28,2.28,0,0,0-.29.33,1.45,1.45,0,0,1-1.64.64A5.63,5.63,0,0,0,10,57a18.17,18.17,0,0,1,1.83-1.54Zm-.49,2.16a4.82,4.82,0,0,0-.93,0c-.22,0-.37-.07-.48-.37h1.42a1.24,1.24,0,0,0,1.08-.53A14.56,14.56,0,0,1,14.2,55a4.32,4.32,0,0,0,1.85-2.59,1.29,1.29,0,0,0-.36-1.13,1.15,1.15,0,0,0-1.2-.34,5.53,5.53,0,0,0-2.07,1.36c-.55.5-1.05,1.06-1.63,1.52-.1.08-.22.25-.36.11a.28.28,0,0,1,0-.39l.05,0A14.46,14.46,0,0,1,14.22,51a1.25,1.25,0,0,1,1.41.11,1.68,1.68,0,0,1,.49,1.64,4.29,4.29,0,0,1-1.61,2.35,17.59,17.59,0,0,0-2.06,2.08,1.15,1.15,0,0,1-1.14.52Zm.79.65a1.07,1.07,0,0,1,1.13.08c-.42.17-.77,0-1.13-.08Zm3.49-.6a2.59,2.59,0,0,1-2.2.28c-.74-.22-.84-.61-.29-1.15s1.21-1.15,1.81-1.72a4.63,4.63,0,0,0,1.32-1.89,2.39,2.39,0,0,0-.09-1.89,1.23,1.23,0,0,0-1.56-.71,8.47,8.47,0,0,0-3,1.63c-.4.29-.78.62-1.22,1a7.28,7.28,0,0,1,1.43-5.1,3.56,3.56,0,0,1,2.66-1.54A2.79,2.79,0,0,1,17.06,48a8.87,8.87,0,0,1,1.09,3.16,7.12,7.12,0,0,1,.14,1.22,5.78,5.78,0,0,1-2.7,5.34Zm3.66-6.13c-.19.16-.39.3-.66.5a7,7,0,0,0-.26-2.18s0-.13.07-.2a.73.73,0,0,1-.27-.8c-.4-.22-.72-1-.53-1.25-.05,0-.1,0-.13,0s-.21.11-.28,0,.06-.19.13-.25L19.08,46l2.23-1.71c.11-.08.21-.28.36-.15s-.08.27-.12.4c.22-.07.41-.07.44.24a.28.28,0,0,0,0,.12c.25.41.33.77-.2,1,0,0-.07.09-.1.13h.09c.19-.05.33-.41.53-.2a.54.54,0,0,1,0,.76.27.27,0,0,1-.08.07c.15,0,.26-.06.45.07.43.28.88,0,1.25-.22s.56-.25.81-.4A13.36,13.36,0,0,0,27,44.79a1.78,1.78,0,0,0,.58-1.37,1.09,1.09,0,0,1,.54-1.1,13.64,13.64,0,0,0,1.15-.85v0h0l2.57-2L33.73,38c.22-.17.35-.23.54,0,.36.49.37.55-.09.93-1,.8-1.93,1.6-2.86,2.43-.28.26-.51.08-.73,0a4.16,4.16,0,0,0-1.27,0l0,0h0c0,.26-.32.34-.42.56a2.58,2.58,0,0,0-.17,1.26.61.61,0,0,1-.25.53l-4.07,3.44-5.13,4.31Zm1.8,19a7.55,7.55,0,0,1,.55,1.53,2.76,2.76,0,0,1-.54-1.53ZM20.22,67a6.5,6.5,0,0,1-.37-1.75,4.35,4.35,0,0,1-.11-1.3,20.06,20.06,0,0,1,.59-4.15c.37-1.71.81-3.4,1.19-5.1a10.15,10.15,0,0,0,.19-1.44c0-.35.17-.33.39-.19a5,5,0,0,1,1.45,1.45c.57.76,1.23,1.45,1.85,2.18s1.1,1.24,1.66,1.84a.39.39,0,0,1,.1.45c-.4.69,0,1.19.4,1.66a2.81,2.81,0,0,1,.71,1.74A21.35,21.35,0,0,0,28.62,65,3.69,3.69,0,0,1,28,68a8.52,8.52,0,0,1-1.8,2c-1.06.72-2.15,1.41-3.23,2.1-.34.21-.56.11-.69-.24-.62-1.65-1.31-3.27-2-4.88Zm8,7.38a6,6,0,0,0,2.62-3.62,3.3,3.3,0,0,1-2.61,3.62Zm2.4-4.48a8.66,8.66,0,0,1-1.74,3,4.59,4.59,0,0,1-2.51,1.35c-.19,0-.34-.07-.56-.13a9.33,9.33,0,0,0,4-3.17L28.5,72.09a8.1,8.1,0,0,1-3.16,1.83,1.5,1.5,0,0,1-1,0,8.28,8.28,0,0,1-2-.88c-.07-.05-.16-.07-.19-.21a2.8,2.8,0,0,0,2.22-.9A20.93,20.93,0,0,0,26.62,70c.94-1,2.07-1.81,2.45-3.22a5,5,0,0,0,0-2.22c-.12-.75-.27-1.49-.42-2.32a1.11,1.11,0,0,1,.33.61c.27,1.09.78,2.1,1,3.22a4.81,4.81,0,0,1-.42,2.77c-.24.59-.51,1.16-.74,1.75a5.56,5.56,0,0,0,1.42-5.43c.55,1.54,1,3.07.44,4.7Zm1.46-5a31.58,31.58,0,0,0-.65,4,.49.49,0,0,1-.18.32c-.06-1.82.19-3.63-.52-5.47a5.39,5.39,0,0,0,1.25.87c.15.06.14.16.1.31Zm2.55,1.91c-.34,0-.5-.34-.61-.64a.13.13,0,0,1,0-.12c0-.06.11,0,.15,0,.61.7,1.24.31,1.87,0a2.12,2.12,0,0,0,.66-.44,8.79,8.79,0,0,1-.9.34c-.48.12-1,.51-1.41-.16,0-.17.36-.1.45-.35a3.24,3.24,0,0,1-1.11-.23c-.11,0-.3-.08-.26-.25s.21-.05.32-.07l.26,0c-1.85-.77-3.39-1.78-4-3.81.33,0,.64.23.91,0-.1-.21-.89-.05-.26-.67-.75.21-1.41-.14-2.1,0,0,.25.31.28.49.36a.72.72,0,0,1,.47.6c.05.37-.15.28-.27.22a3.3,3.3,0,0,1-1.63-1.78c-.13-.32.05-.59.42-.7a6.34,6.34,0,0,0,2.38-1.22,2.13,2.13,0,0,0-.7.18l.3-.38a4.09,4.09,0,0,1-2,.77c-.28.07-.39,0-.37-.28a.74.74,0,0,0-.05-.25.73.73,0,0,1,.43-.94l.11,0,2.42-.76a5,5,0,0,0-2.07.17c-.32.09-.36-.06-.39-.28-.1-.73.15-1.17.86-1.23s1.67-.3,2.51-.4c.19,0,.37.07.57,0-.34-.21-.7-.08-1-.15s-.49-.48-.76-.75c.18.41,0,.65-.34.84s-.8-.07-1.21,0a.94.94,0,0,1-.09-.62,1.33,1.33,0,0,1,.61-.84,7.88,7.88,0,0,0,1-1c.83-.93,1.39-.58,2,.34.34.52.47,1.17.85,1.68a2.89,2.89,0,0,0,.36.44A6.93,6.93,0,0,1,35,57.12a9.5,9.5,0,0,0,1.38,2.17,7,7,0,0,0,1.14,1.16c.63.54.43,1.29.31,1.95a4.81,4.81,0,0,1-2.31,3.23,4.46,4.46,0,0,0,2.24-1.8,4.59,4.59,0,0,0,.32-2.92c.66,1,.26,2-.12,3.05a3,3,0,0,0,1-2.53,1.22,1.22,0,0,1,.22,1.24A5.75,5.75,0,0,1,37.82,65a6.46,6.46,0,0,1-1.55,1.49,2.5,2.5,0,0,1-1.6.36Zm12.4,12.41A10.39,10.39,0,0,1,45.5,79c-1.82-.35-3.54-1.05-5.33-1.5a5.33,5.33,0,0,0-2-.08l1.11.34a4.5,4.5,0,0,1-1.37-.08c-.88-.06-1.74-.23-2.62-.33-.55-.07-.63-.11-.62-.67a21.42,21.42,0,0,1,.57-4.22c.29-1.26.63-2.51,1-3.76,0-.1,0-.33.21-.26a.42.42,0,0,1,.3.53v0c-.16.5-.34,1-.48,1.5a25.6,25.6,0,0,0-.84,4,17.78,17.78,0,0,0-.18,1.79c0,.27,0,.37.34.36a29.23,29.23,0,0,1,3.63.19,25.78,25.78,0,0,1,7,1.49c.23.1.51.24.66-.15a.2.2,0,0,1,.13-.09,2.31,2.31,0,0,1,.68.64.62.62,0,0,1-.63.5ZM36.88,69c.63.72,1.21,1.43,1.84,2.09a29.8,29.8,0,0,0,2.42,2.48c.45.36.83.79,1.26,1.18a28.24,28.24,0,0,0,3.35,2.49c.29.19.57.41.86.61.12.09.24.18.12.34a.24.24,0,0,1-.34.08h0a14.2,14.2,0,0,0-2.75-.88c-.94-.22-1.89-.37-2.84-.51a32.82,32.82,0,0,0-4.85-.3c-.63,0-.58-.24-.55-.65a23.66,23.66,0,0,1,.75-4.58A16,16,0,0,1,36.88,69Zm13.53,0c.49.39,1,.79,1.49,1.18l-.86-1a2.87,2.87,0,0,1,2.14,2.46,6.56,6.56,0,0,1,0,2.42,8.82,8.82,0,0,0-.08,1.45,5.33,5.33,0,0,1-.7,2.52,3.33,3.33,0,0,1-.6,1.15.78.78,0,0,1-.79.23,9.68,9.68,0,0,1-3.76-1.89c-.85-.66-1.8-1.15-2.65-1.79s-1.65-1.33-2.44-2a42.3,42.3,0,0,1-3-3,24.4,24.4,0,0,1-2.61-3.21c-.13-.21-.17-.33.08-.45a5,5,0,0,0,1.9-2c.35-.57.71-1.13,1.08-1.71a16.79,16.79,0,0,0,1.93,1.84A10.17,10.17,0,0,0,46,67a8.89,8.89,0,0,1,4.37,2Zm.27-3.13c-.07.81-.35,1-1.4,1.24A3,3,0,0,1,47.61,67c-.85-.29-1.76-.38-2.63-.62a10.69,10.69,0,0,1-3.4-1.76,11,11,0,0,1-1-.87c-.1-.09-.3-.16-.15-.39s.29-.1.42,0a20.66,20.66,0,0,0,4.81,1.86,13.56,13.56,0,0,0,2.62.46,7.71,7.71,0,0,0,2.25,0c.18,0,.23.05.21.29Zm.94.33c-.14.38-.53.31-.8.43-.09,0-.14,0-.1-.16s.07-.4.14-.59c.16-.43,0-.54-.41-.49a7.55,7.55,0,0,1-2.07,0,12.19,12.19,0,0,1-3.22-.59,28.44,28.44,0,0,1-3.09-1.11c-.43-.24-.87-.46-1.33-.66-.23-.08-.36,0-.48.13s-.1.22-.25.08,0-.43.07-.62.07-.34.37-.22c.67.27,1.36.52,2,.75a34,34,0,0,0,5.18,1.25c1.37.22,2.75.43,4.14.52.22,0,.24.09.17.28l-.35,1Zm1-.09a2.6,2.6,0,0,1-.56.06c.24-.38.46-.78.66-1.18s.1-.49-.28-.49a31.74,31.74,0,0,1-10.55-2.09c-.41-.14-.83-.24-1.25-.36s-.56,0-.64.41a2.21,2.21,0,0,1-.15.5,2.64,2.64,0,0,0-.3-1.49,13.13,13.13,0,0,1,1.33.1c1.1.12,2.19.2,3.27.41,1.28.25,2.52.63,3.77,1s2.51.55,3.72,1c.55.19.83-.06,1.25-.71A49.09,49.09,0,0,1,55.51,59a14.13,14.13,0,0,1,5.09-4.53A1.6,1.6,0,0,1,62,54.39c.72.3,1.52.39,2.33.73a12.13,12.13,0,0,0-3.86,1.42,19.2,19.2,0,0,1,3.44-.93A22.08,22.08,0,0,0,60,57.91a13.12,13.12,0,0,0-2,2c-1.42,1.67-2.51,3.59-3.8,5.35a3.15,3.15,0,0,1-1.65.84Zm6.63,9.62c-.11-.37.16-.58.33-.8a37.86,37.86,0,0,0,4.33-6.85,23,23,0,0,0,1.44-3.69A57.79,57.79,0,0,1,59.49,74.5a18.09,18.09,0,0,1,1.81-5.84A10.26,10.26,0,0,0,59,73.92c-.41-1.06-.78-2-1.17-3-.28-.7-.58-1.39-.89-2.09,0-.07-.06-.38-.23-.06,0,0-.09-.09-.13-.14a7.54,7.54,0,0,0-2.51-2c-.28-.13-.57-.21-.89-.33.46-.21.91-.38,1.32-.61a27,27,0,0,1,3.73-1.85A13.47,13.47,0,0,1,61,63.15c.58-.07,1.14,0,1.71,0a6.9,6.9,0,0,0-4.53.21c-.6.22-1.19.48-1.78.74-.1,0-.2.11-.28,0s0-.21.09-.3a10.91,10.91,0,0,1,4.39-3.1,7,7,0,0,1,2.18-.43,6.78,6.78,0,0,0-5.06,1.41c.5-.58,1-1.2,1.49-1.75A14.63,14.63,0,0,1,62.62,57a1.15,1.15,0,0,1,.92-.13,5.7,5.7,0,0,1,4.05,4.53,18.65,18.65,0,0,1,.52,3,5.2,5.2,0,0,1-.43,2.4,8.77,8.77,0,0,1-2.08,3.12L67,67.53l-.12-.09a28.43,28.43,0,0,1-7.63,8.31Zm3.29-.87c-.05.07-.06.18-.17.14a.33.33,0,0,1-.15-.16c0-.08.06-.12.11-.16s.32-.24.48-.35l.06.05c-.1.16-.22.32-.33.48Zm-.59-.37c.89-1,2-1.72,2.93-2.66a7.55,7.55,0,0,1-2.92,2.66Z"/><path id="Path_3260" data-name="Path 3260" d="M55.19,77.67a8.72,8.72,0,0,0,.86-7.15C56.46,73,55.81,75.33,55.19,77.67Z"/><path id="Path_3261" data-name="Path 3261" d="M52.77,68c1.21,1.28,2.61,2.51,3,4.5C56.12,70.66,53.8,68.37,52.77,68Z"/><path id="Path_3262" data-name="Path 3262" d="M33.1,78.77V74A12.59,12.59,0,0,0,33.1,78.77Z"/><path id="Path_3264" data-name="Path 3264" d="M34.51,80.66h0a12.22,12.22,0,0,1-.79-3.57A5.12,5.12,0,0,0,34.51,80.66Z"/><path id="Path_3265" data-name="Path 3265" d="M57.24,24.63A5.6,5.6,0,0,0,53.91,27a4,4,0,0,1-1.81,1.51,1,1,0,0,0,.73-.09,5.31,5.31,0,0,0,1.73-1.5,5.53,5.53,0,0,1,1.73-1.39,11.2,11.2,0,0,1,3.24-.72A5.21,5.21,0,0,0,57.24,24.63Z"/><path id="Path_3266" data-name="Path 3266" d="M64.06,33.19c.39-2.45-1.42-5.86-2.73-6.66a9.68,9.68,0,0,1,1.74,3.14A30.64,30.64,0,0,1,64.06,33.19Z"/><path id="Path_3267" data-name="Path 3267" d="M61.94,33.09c-.25,0-.31.2-.38.4a.93.93,0,0,0-.05.29c0,.2-.11.49.23.53s.39-.25.47-.48a.89.89,0,0,0,0-.23C62.25,33.36,62.2,33.13,61.94,33.09Z"/><path id="Path_3268" data-name="Path 3268" d="M63.09,34c-.2,0-.55.41-.48.65s0,.57.31.54.34-.49.42-.8C63.26,34.24,63.34,34,63.09,34Z"/><path id="Path_3269" data-name="Path 3269" d="M46.34,73.41a13.85,13.85,0,0,0-2.56-.36C44.07,73.8,45.72,74,46.34,73.41Z"/><path id="Path_3270" data-name="Path 3270" d="M49,77.68c1.76.78,2.78.65,3.22-.37C51.17,78.2,50.06,77.7,49,77.68Z"/><path id="Path_3271" data-name="Path 3271" d="M52,74.85a5.42,5.42,0,0,0-1.63,1.05A2.5,2.5,0,0,0,52,74.85Z"/><path id="Path_3272" data-name="Path 3272" d="M45.4,74.25A2.79,2.79,0,0,0,47,74C46.53,74.21,46,74,45.4,74.25Z"/><path id="Path_3273" data-name="Path 3273" d="M49.93,74.92a2.8,2.8,0,0,0-1,.6A1.38,1.38,0,0,0,49.93,74.92Z"/><path id="Path_3274" data-name="Path 3274" d="M66.73,63.46c-.54,1.73-1,3.49-1.36,5.26A14.17,14.17,0,0,0,66.73,63.46Z"/><path id="Path_3275" data-name="Path 3275" d="M57.82,63.34C59.17,62.6,60.59,62,62,61.22A8.44,8.44,0,0,0,57.82,63.34Z"/><path id="Path_3276" data-name="Path 3276" d="M60.7,62.17c1-.31,2-.59,3-.83A5,5,0,0,0,60.7,62.17Z"/><path id="Path_3277" data-name="Path 3277" d="M62.66,62l1.71-.44A2.77,2.77,0,0,0,62.66,62Z"/><path id="Path_3278" data-name="Path 3278" d="M62.26,66.18a14,14,0,0,0,1-1.18A3.42,3.42,0,0,0,62.26,66.18Z"/><path id="Path_3279" data-name="Path 3279" d="M63.23,62.29l1.64-.23A2.65,2.65,0,0,0,63.23,62.29Z"/><path id="Path_3280" data-name="Path 3280" d="M48.81,37.11a2.24,2.24,0,0,0,.34-.11.79.79,0,0,1,.9.22c-.19.12-.43.17-.51.4s.08.41.14.63a1.29,1.29,0,0,1-.86-.56c.12.55.5.75,1.09.75s.61-.28.8-.55.06-.5-.09-.74a1.2,1.2,0,0,0-1.27-.52,1.45,1.45,0,0,1-.36,0c.58-.44.7-.44,1.49,0-.55-.71-1.06-.72-1.56-.13-.1.11-.28.19-.18.39,0,0-.23-.07-.12.12A.17.17,0,0,0,48.81,37.11Z"/><path id="Path_3281" data-name="Path 3281" d="M57,37.78c-.3.15-.5.18-.6-.11h0a1.46,1.46,0,0,0-2,.37,1.32,1.32,0,0,0-.12.2c.28-.23.51-.56,1-.37a.69.69,0,0,0-.13.78c-.25.15-.56-.09-.8.22A6.31,6.31,0,0,1,55,39a1.78,1.78,0,0,0,1.16-.15s.19.05.09-.09,0-.41-.05-.66c.31.1.57.35.86.1C57.07,38,56.56,38.18,57,37.78Z"/><path id="Path_3282" data-name="Path 3282" d="M57.47,36.37a1.22,1.22,0,0,0,.21.07c-.13-.23-.21-.39-.31-.56a1.27,1.27,0,0,0-1.25-.73,4.14,4.14,0,0,0-2.26,1.23,9.42,9.42,0,0,0,1.2-.23A2.21,2.21,0,0,1,57.47,36.37Z"/><path id="Path_3283" data-name="Path 3283" d="M61.47,41.44c.16-.12.37-.25.3-.5s.11-.44.34-.63c.09.38.28.69.13,1.09s-.42.64-.54,1a1.84,1.84,0,0,0,1-.88c.24-.47-.1-.84-.34-1.29l.5.2c-.37-.8-.77-.89-1.26-.32-.17.2-.29.44-.46.63s0,.4.06.59a.17.17,0,0,0,.23.09Z"/><path id="Path_3284" data-name="Path 3284" d="M50,39.5a1.22,1.22,0,0,0-.24.68c0,.23-.15.17-.24.19s-.19-.08-.22-.21.11-.39.2-.64c-.48.22-.6.39-.55.72s.47.58.65.5.22-.07.32,0a1,1,0,0,0,1.25.44A2.28,2.28,0,0,1,50,39.5Z"/><path id="Path_3285" data-name="Path 3285" d="M54.55,40.2a1.08,1.08,0,0,0-.34,1.18c.1.49.55.74,1.39.84C55,41.66,54.4,41.18,54.55,40.2Z"/><path id="Path_3286" data-name="Path 3286" d="M50.73,38.67l-.52.58c1.3-.43,1.73-1.55,1.2-2.21.1,1-.67,1.35-1.28,1.82Z"/><path id="Path_3287" data-name="Path 3287" d="M56.35,37.42A1.33,1.33,0,0,0,54.53,37l-.13.1c.28.18.32.2.43.15a1.23,1.23,0,0,1,1.54.4A.26.26,0,0,0,56.35,37.42Z"/><path id="Path_3290" data-name="Path 3290" d="M48.86,40.64a9.32,9.32,0,0,0-1.37.87C48.3,41.62,48.72,41.37,48.86,40.64Z"/><path id="Path_3291" data-name="Path 3291" d="M59.68,41.07a12.87,12.87,0,0,0-1.43,1.43A2.26,2.26,0,0,0,59.68,41.07Z"/><path id="Path_3292" data-name="Path 3292" d="M53.34,41.24c.5-.46.47-.72-.07-1.08A2.2,2.2,0,0,1,53.34,41.24Z"/><path id="Path_3293" data-name="Path 3293" d="M52.87,40.91c-.32-.47-.65-.43-1,.1C52.25,41,52.53,40.7,52.87,40.91Z"/><path id="Path_3294" data-name="Path 3294" d="M53.55,39c-.24-.28.06-.55,0-.83C53.09,38.56,53.09,38.67,53.55,39Z"/><path id="Path_3295" data-name="Path 3295" d="M22.65,67.26a1.38,1.38,0,0,0,1.67-.21A2.81,2.81,0,0,0,22.65,67.26Z"/><path id="Path_3296" data-name="Path 3296" d="M25.93,68.88a3.67,3.67,0,0,0-1.47.81A1.35,1.35,0,0,0,25.93,68.88Z"/><path id="Path_3297" data-name="Path 3297" d="M25,68.25a3.51,3.51,0,0,0-1.4.46A1.52,1.52,0,0,0,25,68.25Z"/><path id="Path_3298" data-name="Path 3298" d="M23.7,66.7a6.17,6.17,0,0,0-1.35-.18A1.65,1.65,0,0,0,23.7,66.7Z"/><path id="Path_3299" data-name="Path 3299" d="M24.46,67.78c-.37.1-.78,0-1.16.2A1,1,0,0,0,24.46,67.78Z"/><path id="Path_3300" data-name="Path 3300" d="M23.58,66c-.43-.17-.89-.15-1.33-.29A2.3,2.3,0,0,0,23.58,66Z"/><path id="Path_3301" data-name="Path 3301" d="M24.93,68.82a1.69,1.69,0,0,0-.88.42A.87.87,0,0,0,24.93,68.82Z"/><path id="Path_3302" data-name="Path 3302" d="M36.28,61.42c-.65-1-1.26-2-1.92-3A5.67,5.67,0,0,0,36.28,61.42Z"/><path id="Path_3303" data-name="Path 3303" d="M33.78,59.1A8.67,8.67,0,0,0,35.58,62Z"/><path id="Path_3304" data-name="Path 3304" d="M36.66,60.24l-1.45-2A4.06,4.06,0,0,0,36.66,60.24Z"/><path id="Path_3305" data-name="Path 3305" d="M26.49,52.51a5.82,5.82,0,0,0,1,2A5.58,5.58,0,0,0,26.49,52.51Z"/><path id="Path_3306" data-name="Path 3306" d="M54,65.15c.8-1.45,1.69-2.84,2.54-4.26A10.09,10.09,0,0,0,54,65.15Z"/><path id="Path_3307" data-name="Path 3307" d="M58.86,56.44c1.35-.47,2.72-.88,4.07-1.36A7.51,7.51,0,0,0,58.86,56.44Z"/><path id="Path_3308" data-name="Path 3308" d="M10.58,52.48a27,27,0,0,1,2.9-4.62A10.45,10.45,0,0,0,10.58,52.48Z"/><path id="Path_3309" data-name="Path 3309" d="M17,55a5.76,5.76,0,0,0,.31-2.14Z"/><path id="Path_3310" data-name="Path 3310" d="M46.57,61.09a12.39,12.39,0,0,0,5.06-2.33C50,59.6,48.25,60.28,46.57,61.09Z"/><path id="Path_3311" data-name="Path 3311" d="M48.34,57.55c.22,0,.34-.14.42-.28s-.13-.37-.22-.56c.6-.19,1.23-.22,1.86-.47-.35-.08-.61.08-.89.07a2.35,2.35,0,0,0-1.36.4c-.23.15-.31.23-.16.5S48.15,57.52,48.34,57.55Zm-.05-.63a.23.23,0,0,1,.25.2.33.33,0,0,1-.27.24c-.1,0-.17-.09-.17-.21a.2.2,0,0,1,.19-.23Z"/><path id="Path_3312" data-name="Path 3312" d="M50.26,60.43l2.15-.91A3.51,3.51,0,0,0,50.26,60.43Z"/><path id="Path_3313" data-name="Path 3313" d="M51.31,56.38l-1.76.31A2.7,2.7,0,0,0,51.31,56.38Z"/><path id="Path_3314" data-name="Path 3314" d="M43.62,56.12a3.26,3.26,0,0,0,.29,1.77Z"/><path id="Path_3315" data-name="Path 3315" d="M44.15,59.18l-.66-1.44A2.32,2.32,0,0,0,44.15,59.18Z"/><path id="Path_3316" data-name="Path 3316" d="M52.76,52.56a5.39,5.39,0,0,0,2-1.18Z"/><path id="Path_3317" data-name="Path 3317" d="M56.73,48.92l-.06-.06-1.26,1.26.06.07Z"/><path id="Path_3318" data-name="Path 3318" d="M35.79,31.25a7.69,7.69,0,0,0-1.21,2.82Z"/><path id="Path_3319" data-name="Path 3319" d="M35.56,32.69a7.2,7.2,0,0,0-.93,2.17A9.47,9.47,0,0,0,35.56,32.69Z"/><path id="Path_3320" data-name="Path 3320" d="M38.58,57.8l1.56-4.21A10.23,10.23,0,0,0,38.58,57.8Z"/><path id="Path_3321" data-name="Path 3321" d="M40.45,55.19a8.43,8.43,0,0,0,1.62-2.35A4.77,4.77,0,0,0,40.45,55.19Z"/><path id="Path_3322" data-name="Path 3322" d="M39.73,55.82A13.6,13.6,0,0,0,41,53.4,5.94,5.94,0,0,0,39.73,55.82Z"/><path id="Path_3323" data-name="Path 3323" d="M41.92,51.3a7.3,7.3,0,0,0-1.78,1.77A17.5,17.5,0,0,0,41.92,51.3Z"/><path id="Path_3324" data-name="Path 3324" d="M42.37,54.88a6.42,6.42,0,0,0-1.25,2,18.3,18.3,0,0,0,1.26-2Z"/><path id="Path_3325" data-name="Path 3325" d="M42.37,54.88h0a10.76,10.76,0,0,0,1.25-1.6h0A5.63,5.63,0,0,0,42.37,54.88Z"/><path id="Path_3326" data-name="Path 3326" d="M43.63,53.27h0Z"/><path id="Path_3327" data-name="Path 3327" d="M42.37,54.88h0Z"/><path id="Path_3328" data-name="Path 3328" d="M35.62,54.61A10.51,10.51,0,0,1,37.36,52,4.5,4.5,0,0,0,35.62,54.61Z"/><path id="Path_3329" data-name="Path 3329" d="M55.93,54.91a3.25,3.25,0,0,0-.75,1.56C55.39,55.93,55.69,55.44,55.93,54.91Z"/><path id="Path_3330" data-name="Path 3330" d="M56,55.93l.65-1.07-.09-.06C56.41,55.17,56.08,55.47,56,55.93Z"/><path id="Path_3331" data-name="Path 3331" d="M63,38.08c-.17,0-.2.15-.19.3s.08.23.22.22.23-.12.21-.39A.2.2,0,0,0,63,38.08Z"/><path id="Path_3332" data-name="Path 3332" d="M63.68,38.88c-.16,0-.21.13-.21.17,0,.24.07.37.2.34a.26.26,0,0,0,.23-.28C63.88,39,63.85,38.87,63.68,38.88Z"/></g><g id="Professional_Services" data-name="Professional Services" class="cls-7"><g class="cls-7"><path class="cls-2" d="M103.46,68a.32.32,0,0,1-.23-.08.32.32,0,0,1-.09-.24V64.08l-3.61-5.91,0-.09a.17.17,0,0,1,0-.1.29.29,0,0,1,.09-.21.28.28,0,0,1,.21-.08h.29a.35.35,0,0,1,.2.05.3.3,0,0,1,.14.17l3.21,5.21,3.2-5.21a.53.53,0,0,1,.16-.17.29.29,0,0,1,.18-.05h.3a.28.28,0,0,1,.21.08.29.29,0,0,1,.09.21.3.3,0,0,1,0,.1.36.36,0,0,1,0,.09l-3.61,5.91V67.7a.32.32,0,0,1-.09.24.37.37,0,0,1-.25.08Z"/><path class="cls-2" d="M111.17,68.17a3.38,3.38,0,0,1-1.78-.44,2.9,2.9,0,0,1-1.09-1.21,4.19,4.19,0,0,1-.41-1.72c0-.14,0-.35,0-.62s0-.47,0-.62a4.15,4.15,0,0,1,.41-1.72,2.87,2.87,0,0,1,1.09-1.2,3.82,3.82,0,0,1,3.56,0,2.87,2.87,0,0,1,1.09,1.2,4,4,0,0,1,.41,1.72c0,.15,0,.36,0,.62s0,.48,0,.62a4,4,0,0,1-.41,1.72A2.9,2.9,0,0,1,113,67.73,3.38,3.38,0,0,1,111.17,68.17Zm0-.86a2.28,2.28,0,0,0,1.69-.66,2.79,2.79,0,0,0,.69-1.92c0-.15,0-.33,0-.55s0-.4,0-.54a2.8,2.8,0,0,0-.69-1.93,2.28,2.28,0,0,0-1.69-.66,2.24,2.24,0,0,0-1.68.66,2.8,2.8,0,0,0-.7,1.93c0,.14,0,.33,0,.54s0,.4,0,.55a2.79,2.79,0,0,0,.7,1.92A2.24,2.24,0,0,0,111.17,67.31Z"/><path class="cls-2" d="M119.37,68.17a3,3,0,0,1-1.66-.43,2.6,2.6,0,0,1-1-1.19,4.39,4.39,0,0,1-.31-1.69V60.67a.32.32,0,0,1,.08-.24.32.32,0,0,1,.24-.09H117a.31.31,0,0,1,.33.33v4.12c0,1.68.73,2.52,2.2,2.52a2.19,2.19,0,0,0,1.68-.67,2.6,2.6,0,0,0,.64-1.85V60.67a.31.31,0,0,1,.32-.33h.25a.31.31,0,0,1,.33.33v7a.32.32,0,0,1-.09.24.36.36,0,0,1-.24.08h-.25a.32.32,0,0,1-.23-.08.29.29,0,0,1-.09-.24V67a3.38,3.38,0,0,1-1,.85A3.05,3.05,0,0,1,119.37,68.17Z"/><path class="cls-2" d="M129.46,68a.36.36,0,0,1-.24-.08.32.32,0,0,1-.09-.24V58a.35.35,0,0,1,.09-.25.32.32,0,0,1,.24-.08h.31a.29.29,0,0,1,.22.07l.09.1,5.45,8.33V58a.35.35,0,0,1,.09-.25.3.3,0,0,1,.23-.08h.27a.33.33,0,0,1,.25.08.35.35,0,0,1,.09.25v9.66a.37.37,0,0,1-.09.25.32.32,0,0,1-.24.09h-.32a.29.29,0,0,1-.22-.07l-.09-.1-5.44-8.3V67.7a.32.32,0,0,1-.09.24.37.37,0,0,1-.25.08Z"/><path class="cls-2" d="M141.11,68.17a3,3,0,0,1-1.31-.29,2.59,2.59,0,0,1-1-.79,1.82,1.82,0,0,1-.37-1.12,1.92,1.92,0,0,1,.81-1.61,4.52,4.52,0,0,1,2.11-.78l2.33-.33v-.51a1.61,1.61,0,0,0-.48-1.24,2.17,2.17,0,0,0-1.52-.45,2.31,2.31,0,0,0-1.25.3,1.56,1.56,0,0,0-.64.8.3.3,0,0,1-.29.22h-.23a.28.28,0,0,1-.25-.1A.36.36,0,0,1,139,62a1.31,1.31,0,0,1,.16-.52,2.14,2.14,0,0,1,.48-.61,2.85,2.85,0,0,1,.84-.51,3.58,3.58,0,0,1,1.26-.2,3.75,3.75,0,0,1,1.44.23,2.22,2.22,0,0,1,1.33,1.45,3.18,3.18,0,0,1,.14.9V67.7a.32.32,0,0,1-.09.24.36.36,0,0,1-.24.08h-.25a.36.36,0,0,1-.24-.08.32.32,0,0,1-.09-.24V67a2.24,2.24,0,0,1-.5.54,3.06,3.06,0,0,1-.83.45A3.91,3.91,0,0,1,141.11,68.17Zm.15-.86A2.6,2.6,0,0,0,142.5,67a2.17,2.17,0,0,0,.89-.91,3.22,3.22,0,0,0,.33-1.54v-.5l-1.9.26a4.65,4.65,0,0,0-1.83.56,1.16,1.16,0,0,0-.62,1,1.11,1.11,0,0,0,.28.79,1.67,1.67,0,0,0,.71.47A2.74,2.74,0,0,0,141.26,67.31Z"/><path class="cls-2" d="M147.28,68a.36.36,0,0,1-.23-.08.32.32,0,0,1-.09-.24v-7a.32.32,0,0,1,.09-.24.32.32,0,0,1,.23-.09h.26a.32.32,0,0,1,.23.09.32.32,0,0,1,.09.24v.52a2.44,2.44,0,0,1,2.11-1,2.46,2.46,0,0,1,2.37,1.38,2.47,2.47,0,0,1,1-1,3,3,0,0,1,1.52-.37,2.79,2.79,0,0,1,1.41.36,2.51,2.51,0,0,1,1,1.07,3.87,3.87,0,0,1,.36,1.77v4.3a.32.32,0,0,1-.09.24.36.36,0,0,1-.24.08H157a.34.34,0,0,1-.23-.08.32.32,0,0,1-.09-.24V63.55a3.46,3.46,0,0,0-.28-1.52,1.76,1.76,0,0,0-.74-.76,2.39,2.39,0,0,0-1-.22,2.13,2.13,0,0,0-.9.22A1.79,1.79,0,0,0,153,62a3.16,3.16,0,0,0-.31,1.52V67.7a.32.32,0,0,1-.08.24.36.36,0,0,1-.24.08h-.25a.36.36,0,0,1-.24-.08.32.32,0,0,1-.09-.24V63.55a3.31,3.31,0,0,0-.29-1.52,1.79,1.79,0,0,0-.76-.76,2.25,2.25,0,0,0-1-.22,2.2,2.2,0,0,0-.9.22,1.85,1.85,0,0,0-.76.76,3.11,3.11,0,0,0-.3,1.5V67.7a.32.32,0,0,1-.09.24.36.36,0,0,1-.23.08Z"/><path class="cls-2" d="M162.78,68.17a2.91,2.91,0,0,1-2.28-.94,4,4,0,0,1-1-2.46c0-.14,0-.34,0-.59s0-.44,0-.59a4.45,4.45,0,0,1,.48-1.77,3,3,0,0,1,1.1-1.2,3.15,3.15,0,0,1,1.66-.42,3.29,3.29,0,0,1,1.76.45A3,3,0,0,1,165.65,62a4.88,4.88,0,0,1,.39,2v.22a.3.3,0,0,1-.09.23.37.37,0,0,1-.25.09h-5.26v.15a3.45,3.45,0,0,0,.32,1.26,2.46,2.46,0,0,0,.79,1,2.06,2.06,0,0,0,1.23.37,2.58,2.58,0,0,0,1.06-.19,2.76,2.76,0,0,0,.67-.42,2.13,2.13,0,0,0,.32-.35.73.73,0,0,1,.21-.22.47.47,0,0,1,.23,0h.24a.36.36,0,0,1,.23.08.24.24,0,0,1,.08.21,1.11,1.11,0,0,1-.23.51,2.43,2.43,0,0,1-.6.6,3.33,3.33,0,0,1-1,.49A3.77,3.77,0,0,1,162.78,68.17Zm-2.34-4.44h4.7v-.06a3,3,0,0,0-.28-1.33,2.25,2.25,0,0,0-.81-.94,2.3,2.3,0,0,0-1.27-.35,2.25,2.25,0,0,0-1.26.35,2.16,2.16,0,0,0-.8.94,3.13,3.13,0,0,0-.28,1.33Z"/><path class="cls-2" d="M172.32,68a.36.36,0,0,1-.24-.08.32.32,0,0,1-.08-.24V58a.28.28,0,0,1,.32-.32h.28a.32.32,0,0,1,.24.08.32.32,0,0,1,.09.24V67.7a.32.32,0,0,1-.09.24.36.36,0,0,1-.24.08Z"/><path class="cls-2" d="M178.1,68a2,2,0,0,1-1.22-.32,1.74,1.74,0,0,1-.62-.89,4.07,4.07,0,0,1-.17-1.25V61.2h-1.16a.31.31,0,0,1-.32-.32v-.21a.32.32,0,0,1,.09-.24.32.32,0,0,1,.23-.09h1.16V57.86a.3.3,0,0,1,.09-.23.29.29,0,0,1,.23-.09h.25a.32.32,0,0,1,.24.09.3.3,0,0,1,.09.23v2.48h1.83a.32.32,0,0,1,.24.09.36.36,0,0,1,.08.24v.21a.36.36,0,0,1-.08.23.32.32,0,0,1-.24.09H177v4.3a2.33,2.33,0,0,0,.26,1.22,1,1,0,0,0,.92.45h.8a.32.32,0,0,1,.23.09.29.29,0,0,1,.09.23v.21a.32.32,0,0,1-.09.24A.36.36,0,0,1,179,68Z"/><path class="cls-2" d="M181,68a.36.36,0,0,1-.24-.08.32.32,0,0,1-.09-.24v-.56a.37.37,0,0,1,.09-.25.32.32,0,0,1,.24-.09h.56a.32.32,0,0,1,.24.09.33.33,0,0,1,.1.25v.56a.3.3,0,0,1-.1.24.36.36,0,0,1-.24.08Zm.16-2.11a.29.29,0,0,1-.23-.09.3.3,0,0,1-.09-.23V58a.32.32,0,0,1,.09-.24.28.28,0,0,1,.23-.08h.25a.32.32,0,0,1,.24.08.32.32,0,0,1,.09.24v7.58a.3.3,0,0,1-.09.23.32.32,0,0,1-.24.09Z"/><path class="cls-2" d="M189.63,68a.36.36,0,0,1-.27-.08.43.43,0,0,1-.14-.27l-2-9.51s0-.08,0-.11a.35.35,0,0,0,0-.07.29.29,0,0,1,.09-.21.28.28,0,0,1,.21-.08h.31c.19,0,.29.07.32.22l1.73,8.42,1.83-6a.57.57,0,0,1,.16-.23.41.41,0,0,1,.3-.11h.33a.43.43,0,0,1,.31.11.62.62,0,0,1,.14.23l1.84,6,1.72-8.42c0-.15.14-.22.33-.22h.31a.28.28,0,0,1,.21.08.32.32,0,0,1,.08.21v.07l0,.11-2,9.51a.43.43,0,0,1-.14.27.36.36,0,0,1-.27.08h-.22a.5.5,0,0,1-.29-.08.53.53,0,0,1-.17-.27l-2-6.23-2,6.23a.6.6,0,0,1-.17.27.5.5,0,0,1-.29.08Z"/><path class="cls-2" d="M201.82,68.17a2.89,2.89,0,0,1-2.28-.94,4,4,0,0,1-1-2.46c0-.14,0-.34,0-.59s0-.44,0-.59a4.62,4.62,0,0,1,.47-1.77,3.11,3.11,0,0,1,1.1-1.2,3.58,3.58,0,0,1,3.42,0A3,3,0,0,1,204.69,62a4.88,4.88,0,0,1,.39,2v.22a.28.28,0,0,1-.1.23.32.32,0,0,1-.24.09h-5.26v.15a3.25,3.25,0,0,0,.31,1.26,2.57,2.57,0,0,0,.8,1,2,2,0,0,0,1.23.37,2.5,2.5,0,0,0,1.05-.19,2.58,2.58,0,0,0,.67-.42,1.89,1.89,0,0,0,.33-.35.73.73,0,0,1,.21-.22.45.45,0,0,1,.23,0h.24a.38.38,0,0,1,.23.08.24.24,0,0,1,.08.21,1.11,1.11,0,0,1-.23.51,2.49,2.49,0,0,1-.61.6,3.26,3.26,0,0,1-1,.49A3.77,3.77,0,0,1,201.82,68.17Zm-2.34-4.44h4.7v-.06a3,3,0,0,0-.28-1.33,2.25,2.25,0,0,0-.81-.94,2.3,2.3,0,0,0-1.27-.35,2.26,2.26,0,0,0-1.27.35,2.14,2.14,0,0,0-.79.94,3,3,0,0,0-.28,1.33Z"/><path class="cls-2" d="M211.36,68a.36.36,0,0,1-.24-.08.32.32,0,0,1-.09-.24V58a.35.35,0,0,1,.09-.25.32.32,0,0,1,.24-.08h3.14a5.54,5.54,0,0,1,2.46.45,2.67,2.67,0,0,1,1.26,1.35,5.86,5.86,0,0,1,.39,2.18c0,.45,0,.84,0,1.18s0,.73,0,1.17a6.17,6.17,0,0,1-.4,2.25A2.54,2.54,0,0,1,217,67.59a5.43,5.43,0,0,1-2.39.43Zm.6-.88h2.54a4.56,4.56,0,0,0,1.87-.32,1.9,1.9,0,0,0,1-1,4.92,4.92,0,0,0,.32-1.85c0-.3,0-.56,0-.78v-.66c0-.21,0-.47,0-.76a3.51,3.51,0,0,0-.75-2.4,3.33,3.33,0,0,0-2.5-.78H212Z"/><path class="cls-2" d="M223.76,68.17a3.4,3.4,0,0,1-1.78-.44,3,3,0,0,1-1.09-1.21,4.19,4.19,0,0,1-.41-1.72c0-.14,0-.35,0-.62s0-.47,0-.62a4.15,4.15,0,0,1,.41-1.72,2.94,2.94,0,0,1,1.09-1.2,3.31,3.31,0,0,1,1.78-.44,3.26,3.26,0,0,1,1.78.44,2.89,2.89,0,0,1,1.1,1.2,4.14,4.14,0,0,1,.4,1.72c0,.15,0,.36,0,.62s0,.48,0,.62a4.18,4.18,0,0,1-.4,1.72,2.92,2.92,0,0,1-1.1,1.21A3.35,3.35,0,0,1,223.76,68.17Zm0-.86a2.28,2.28,0,0,0,1.69-.66,2.79,2.79,0,0,0,.69-1.92c0-.15,0-.33,0-.55s0-.4,0-.54a2.8,2.8,0,0,0-.69-1.93,2.28,2.28,0,0,0-1.69-.66,2.24,2.24,0,0,0-1.68.66,2.8,2.8,0,0,0-.69,1.93c0,.14,0,.33,0,.54s0,.4,0,.55a2.79,2.79,0,0,0,.69,1.92A2.24,2.24,0,0,0,223.76,67.31Z"/><path class="cls-2" d="M233.41,68a.36.36,0,0,1-.24-.08.32.32,0,0,1-.09-.24V58a.32.32,0,0,1,.09-.24.32.32,0,0,1,.24-.08h.28a.32.32,0,0,1,.24.08A.36.36,0,0,1,234,58V67.7a.28.28,0,0,1-.32.32Z"/><path class="cls-2" d="M239.18,68A2,2,0,0,1,238,67.7a1.74,1.74,0,0,1-.62-.89,4.07,4.07,0,0,1-.17-1.25V61.2H236a.3.3,0,0,1-.23-.09.32.32,0,0,1-.09-.23v-.21a.32.32,0,0,1,.09-.24.3.3,0,0,1,.23-.09h1.16V57.86a.3.3,0,0,1,.08-.23.32.32,0,0,1,.24-.09h.25a.32.32,0,0,1,.24.09.3.3,0,0,1,.09.23v2.48h1.83a.29.29,0,0,1,.23.09.32.32,0,0,1,.09.24v.21a.32.32,0,0,1-.09.23.29.29,0,0,1-.23.09h-1.83v4.3a2.44,2.44,0,0,0,.25,1.22,1,1,0,0,0,.93.45h.8a.32.32,0,0,1,.23.09.29.29,0,0,1,.09.23v.21a.32.32,0,0,1-.09.24.36.36,0,0,1-.23.08Z"/><path class="cls-2" d="M242.08,68a.36.36,0,0,1-.24-.08.32.32,0,0,1-.09-.24v-.56a.37.37,0,0,1,.09-.25.32.32,0,0,1,.24-.09h.56a.32.32,0,0,1,.24.09.33.33,0,0,1,.1.25v.56a.3.3,0,0,1-.1.24.36.36,0,0,1-.24.08Zm.16-2.11a.32.32,0,0,1-.24-.09.3.3,0,0,1-.08-.23V58a.28.28,0,0,1,.32-.32h.25a.32.32,0,0,1,.24.08.32.32,0,0,1,.09.24v7.58a.3.3,0,0,1-.09.23.32.32,0,0,1-.24.09Z"/></g></g><g id="Mr_Kim" data-name="Mr Kim" class="cls-7"><g class="cls-7"><path class="cls-2" d="M100.81,51.13a1,1,0,0,1-.72-.3,1,1,0,0,1-.31-.72V23.56a1,1,0,0,1,.31-.73,1,1,0,0,1,.72-.29h4.41a1.35,1.35,0,0,1,1,.35,2.52,2.52,0,0,1,.41.55l7.18,12.87L121,23.44a4.81,4.81,0,0,1,.43-.55,1.28,1.28,0,0,1,1-.35h4.37a1.09,1.09,0,0,1,.76.29,1,1,0,0,1,.3.73V50.11a1,1,0,0,1-.3.72,1.06,1.06,0,0,1-.76.3H122a1,1,0,0,1-.75-.3,1,1,0,0,1-.31-.72V34.8l-4.57,8.53a2.44,2.44,0,0,1-.54.66,1.28,1.28,0,0,1-.89.28h-2.13a1.33,1.33,0,0,1-.9-.28,2.61,2.61,0,0,1-.53-.66l-4.61-8.53V50.11a1,1,0,0,1-.29.72,1,1,0,0,1-.73.3Z"/><path class="cls-2" d="M134.17,51.13a1,1,0,0,1-.73-.3,1,1,0,0,1-.29-.72V30.92a1,1,0,0,1,.29-.72,1,1,0,0,1,.73-.3h4.7a1,1,0,0,1,.75.3,1,1,0,0,1,.31.72v1.63a7.27,7.27,0,0,1,2.59-2A8.38,8.38,0,0,1,146,29.9h1.79a1,1,0,0,1,1,1v4.2a1,1,0,0,1-.28.72,1,1,0,0,1-.74.3h-4a3.2,3.2,0,0,0-3.51,3.52V50.11a1,1,0,0,1-.31.72,1,1,0,0,1-.75.3Z"/><path class="cls-2" d="M150.35,51.13a1,1,0,0,1-.74-.3,1,1,0,0,1-.29-.72V44.93a1,1,0,0,1,1-1h5.18a1,1,0,0,1,.72.29,1,1,0,0,1,.3.74v5.18a1,1,0,0,1-.3.72,1,1,0,0,1-.72.3Z"/><path class="cls-2" d="M171.3,51.13a1,1,0,0,1-.74-.3,1,1,0,0,1-.28-.72V23.56a1,1,0,0,1,.28-.73,1,1,0,0,1,.74-.29h5.14a1,1,0,0,1,.74.29,1,1,0,0,1,.28.73v9.07L185,23.32a2.13,2.13,0,0,1,.55-.51,1.8,1.8,0,0,1,1-.27h5.88a.81.81,0,0,1,.62.27.86.86,0,0,1,.24.59.94.94,0,0,1-.12.49l-9.8,12.34L194,49.79a.66.66,0,0,1,.17.49.84.84,0,0,1-.25.59.78.78,0,0,1-.61.26h-6.09a1.74,1.74,0,0,1-1.12-.32,3.51,3.51,0,0,1-.51-.49l-8.09-10.09v9.88a1,1,0,0,1-.28.72,1,1,0,0,1-.74.3Z"/><path class="cls-2" d="M197.89,26.83a1,1,0,0,1-1-1V22.14a1,1,0,0,1,.29-.72,1,1,0,0,1,.74-.31h4.9a1,1,0,0,1,.71.31,1,1,0,0,1,.31.72v3.67a1,1,0,0,1-.31.74,1,1,0,0,1-.71.28Zm0,24.3a1,1,0,0,1-.74-.3,1,1,0,0,1-.28-.72V30.92a1,1,0,0,1,1-1h4.82a1,1,0,0,1,.73.28,1,1,0,0,1,.29.74V50.11a1,1,0,0,1-.29.72,1,1,0,0,1-.73.3Z"/><path class="cls-2" d="M210.87,51.13a1,1,0,0,1-.73-.3,1,1,0,0,1-.29-.72V30.92a1,1,0,0,1,.29-.74,1,1,0,0,1,.73-.28h4.45a1,1,0,0,1,1,1v1.39a7,7,0,0,1,2.28-1.94,7.11,7.11,0,0,1,3.47-.88q4.74-.12,6.5,3.51a7.08,7.08,0,0,1,2.67-2.53,8,8,0,0,1,7.64,0,6.89,6.89,0,0,1,2.72,2.94,11.18,11.18,0,0,1,1,5.12v11.6a1,1,0,0,1-.29.72,1,1,0,0,1-.73.3h-4.74a1.06,1.06,0,0,1-.76-.3,1,1,0,0,1-.3-.72V38.8a5.3,5.3,0,0,0-.41-2.27,2.54,2.54,0,0,0-1.1-1.2,3.34,3.34,0,0,0-1.6-.37,3.09,3.09,0,0,0-1.45.37,2.66,2.66,0,0,0-1.14,1.2,5,5,0,0,0-.43,2.27V50.11a1,1,0,0,1-.29.72,1,1,0,0,1-.73.3h-4.74a1,1,0,0,1-.73-.3,1,1,0,0,1-.29-.72V38.8a4.84,4.84,0,0,0-.45-2.27,2.77,2.77,0,0,0-1.14-1.2,3.23,3.23,0,0,0-3,0,2.63,2.63,0,0,0-1.15,1.2,5,5,0,0,0-.43,2.23V50.11a1,1,0,0,1-1,1Z"/></g></g><path class="cls-2" d="M9.33,60a.15.15,0,0,1,0,.13.13.13,0,0,1-.09.09l-.07,0-5.52.14a.39.39,0,0,1-.18,0,.27.27,0,0,1-.13-.16l-.38-1a.27.27,0,0,1,0-.21.26.26,0,0,1,.11-.14l4.1-3.7.06,0a.15.15,0,0,1,.13,0,.13.13,0,0,1,.09.09l.31.78a.19.19,0,0,1,0,.18.23.23,0,0,1-.07.11L7,57l.84,2.11h1a.3.3,0,0,1,.12,0,.24.24,0,0,1,.12.14Zm-2.59-.83-.62-1.55L4.28,59.27Z"/><path class="cls-2" d="M6.82,52.47a3,3,0,0,1,.06,1.26,1.72,1.72,0,0,1-.52,1,2.4,2.4,0,0,1-1.15.58L2,56.05a.25.25,0,0,1-.15,0,.18.18,0,0,1-.09-.13l-.21-.85a.29.29,0,0,1,0-.16.25.25,0,0,1,.13-.09L4.9,54a1.2,1.2,0,0,0,.79-.48,1,1,0,0,0,.1-.83A1,1,0,0,0,5.32,52,1.21,1.21,0,0,0,4.4,52l-3.19.77a.19.19,0,0,1-.15,0A.18.18,0,0,1,1,52.58l-.21-.86a.26.26,0,0,1,0-.15.25.25,0,0,1,.13-.09l3.19-.77a2.49,2.49,0,0,1,1.3,0,1.82,1.82,0,0,1,.9.62A2.84,2.84,0,0,1,6.82,52.47Z"/><path class="cls-2" d="M5.92,47.8a.19.19,0,0,1,0,.15.16.16,0,0,1-.14.07l-4.29.43.14,1.46a.23.23,0,0,1,0,.14.24.24,0,0,1-.13.07l-.73.07a.18.18,0,0,1-.14,0A.2.2,0,0,1,.47,50l-.41-4.2a.19.19,0,0,1,.18-.22L1,45.53a.18.18,0,0,1,.14,0,.17.17,0,0,1,.07.14l.15,1.45,4.29-.43a.2.2,0,0,1,.15.05.17.17,0,0,1,.07.13Z"/><path class="cls-2" d="M5.8,42.34a3.16,3.16,0,0,1-.29,1.26,1.78,1.78,0,0,1-.76.8,2.43,2.43,0,0,1-1.23.28H2.83l-.7,0a2.43,2.43,0,0,1-1.2-.36,1.86,1.86,0,0,1-.72-.87A3.09,3.09,0,0,1,0,42.14a2.93,2.93,0,0,1,.3-1.23,1.9,1.9,0,0,1,.77-.82,2.49,2.49,0,0,1,1.23-.28H3l.68,0a2.44,2.44,0,0,1,1.22.37,1.78,1.78,0,0,1,.7.85A3.09,3.09,0,0,1,5.8,42.34Zm-1,0a1.1,1.1,0,0,0-.26-.78,1.23,1.23,0,0,0-.9-.35l-.67,0H2.28a1.55,1.55,0,0,0-.69.13,1,1,0,0,0-.41.37,1.35,1.35,0,0,0-.14.55,1.15,1.15,0,0,0,.11.56.87.87,0,0,0,.37.39,1.77,1.77,0,0,0,.68.19l.66,0h.66a1.31,1.31,0,0,0,.93-.29A1.1,1.1,0,0,0,4.76,42.31Z"/><path class="cls-2" d="M4.76,36.15a1,1,0,0,1-.22.46,1,1,0,0,1-.91.31,1,1,0,0,1-.46-.22.94.94,0,0,1-.28-.42.93.93,0,0,1,.19-1,1,1,0,0,1,.41-.28A.94.94,0,0,1,4,35a1,1,0,0,1,.45.22,1.07,1.07,0,0,1,.28.42A.93.93,0,0,1,4.76,36.15Z"/><path class="cls-2" d="M7.26,32.63a.18.18,0,0,1-.1.12.18.18,0,0,1-.16,0L2.09,31a.18.18,0,0,1-.12-.1.22.22,0,0,1,0-.16l.3-.82a.18.18,0,0,1,.1-.12.22.22,0,0,1,.16,0l1.89.69.75-2.05-1.9-.69a.22.22,0,0,1-.11-.1.22.22,0,0,1,0-.16l.31-.82a.18.18,0,0,1,.1-.12.19.19,0,0,1,.15,0L8.63,28.3a.23.23,0,0,1,.12.1.22.22,0,0,1,0,.16l-.3.82a.2.2,0,0,1-.1.12.22.22,0,0,1-.16,0l-1.95-.71-.75,2.05,2,.71a.2.2,0,0,1,.12.1.22.22,0,0,1,0,.16Z"/><path class="cls-2" d="M10.37,25.54a3.19,3.19,0,0,1-.81,1,1.92,1.92,0,0,1-1,.38,2.47,2.47,0,0,1-1.23-.3l-.61-.32L6.07,26a2.42,2.42,0,0,1-.92-.87A2,2,0,0,1,4.89,24a3.25,3.25,0,0,1,1.19-2.19,1.89,1.89,0,0,1,1.06-.39,2.39,2.39,0,0,1,1.22.3c.22.1.42.21.62.32s.4.22.6.34a2.46,2.46,0,0,1,.93.87,1.79,1.79,0,0,1,.24,1.07A2.87,2.87,0,0,1,10.37,25.54Zm-.91-.49a1.14,1.14,0,0,0,.11-.82,1.28,1.28,0,0,0-.65-.71l-.58-.33-.58-.3a1.5,1.5,0,0,0-.68-.19.91.91,0,0,0-.52.15,1.15,1.15,0,0,0-.38.43,1.1,1.1,0,0,0-.15.54.94.94,0,0,0,.16.53,1.64,1.64,0,0,0,.53.46l.57.32.59.31a1.33,1.33,0,0,0,1,.15A1.08,1.08,0,0,0,9.46,25.05Z"/><path class="cls-2" d="M12,22.55a.21.21,0,0,1-.13.07.16.16,0,0,1-.15,0L7.54,19.41a.17.17,0,0,1-.08-.14.18.18,0,0,1,0-.14l.45-.6a.24.24,0,0,1,.16-.1h.13l3.07.48-1.26-2.85a.5.5,0,0,1,0-.12.22.22,0,0,1,.06-.18l.45-.6a.26.26,0,0,1,.13-.08.19.19,0,0,1,.15,0L15,18.29a.2.2,0,0,1,.09.13.23.23,0,0,1-.05.15l-.5.65a.17.17,0,0,1-.27,0l-2.59-2,.9,2a.29.29,0,0,1,0,.16.2.2,0,0,1-.06.17l-.22.3a.33.33,0,0,1-.15.1A.49.49,0,0,1,12,20l-2.14-.35,2.58,2a.16.16,0,0,1,.08.13.17.17,0,0,1,0,.14Z"/><path class="cls-2" d="M16,17.58a.2.2,0,0,1-.14.06.19.19,0,0,1-.15-.07L12,13.82a.22.22,0,0,1-.06-.15.2.2,0,0,1,.06-.14L14.66,11a.2.2,0,0,1,.14-.06A.19.19,0,0,1,15,11l.44.46a.18.18,0,0,1,.06.14.17.17,0,0,1-.07.14l-1.87,1.81.88.91,1.75-1.69a.19.19,0,0,1,.28,0l.42.43a.22.22,0,0,1,.05.14.2.2,0,0,1-.06.14l-1.75,1.69.91.94,1.92-1.86a.14.14,0,0,1,.14-.06.18.18,0,0,1,.14.06l.45.46a.2.2,0,0,1,.06.14.17.17,0,0,1-.07.14Z"/><path class="cls-2" d="M20.61,11.39a1,1,0,0,1-.47.18.93.93,0,0,1-.49-.08,1,1,0,0,1-.39-.32,1.08,1.08,0,0,1-.18-.48,1,1,0,0,1,.09-.49.92.92,0,0,1,.31-.39A1,1,0,0,1,20,9.64a.93.93,0,0,1,.49.08.85.85,0,0,1,.39.31,1,1,0,0,1,.09,1A.86.86,0,0,1,20.61,11.39Z"/><path class="cls-2" d="M26.67,9.75a3,3,0,0,1-1.26.36,1.87,1.87,0,0,1-1.06-.3,2.52,2.52,0,0,1-.82-.91q-.16-.3-.33-.63l-.32-.65a2.48,2.48,0,0,1-.24-1.2,1.93,1.93,0,0,1,.41-1,2.74,2.74,0,0,1,1-.8A3,3,0,0,1,25,4.26a2.25,2.25,0,0,1,.86,0,1.79,1.79,0,0,1,.72.31,1.69,1.69,0,0,1,.52.6.15.15,0,0,1,0,.13.18.18,0,0,1-.09.1l-.82.42a.23.23,0,0,1-.16,0,.26.26,0,0,1-.15-.1,1,1,0,0,0-.65-.4,1.36,1.36,0,0,0-.71.15,1.09,1.09,0,0,0-.58.6,1.28,1.28,0,0,0,.13,1c.18.4.39.8.61,1.21a1.26,1.26,0,0,0,.69.67,1.14,1.14,0,0,0,.83-.11,1.35,1.35,0,0,0,.54-.48,1,1,0,0,0,.07-.76.3.3,0,0,1,0-.19.26.26,0,0,1,.12-.11l.82-.41a.15.15,0,0,1,.13,0A.14.14,0,0,1,28,7a1.85,1.85,0,0,1,.18.78,1.73,1.73,0,0,1-.18.76,2.21,2.21,0,0,1-.5.7A3.38,3.38,0,0,1,26.67,9.75Z"/><path class="cls-2" d="M31.64,7.69a3.15,3.15,0,0,1-1.28.17,1.8,1.8,0,0,1-1-.43,2.49,2.49,0,0,1-.7-1.06c-.07-.21-.15-.43-.22-.65s-.15-.43-.22-.66a2.51,2.51,0,0,1-.08-1.26,1.88,1.88,0,0,1,.56-1,2.85,2.85,0,0,1,1.11-.64A2.94,2.94,0,0,1,31,2a1.87,1.87,0,0,1,1,.44,2.36,2.36,0,0,1,.69,1q.13.33.24.66l.21.65A2.45,2.45,0,0,1,33.3,6.1a1.87,1.87,0,0,1-.55,1A3.29,3.29,0,0,1,31.64,7.69Zm-.34-1a1.07,1.07,0,0,0,.64-.51,1.28,1.28,0,0,0,0-1c-.06-.23-.13-.44-.19-.64L31.53,4a1.43,1.43,0,0,0-.36-.6.92.92,0,0,0-.49-.25,1.1,1.1,0,0,0-.56.06,1.14,1.14,0,0,0-.49.29,1,1,0,0,0-.24.49,1.62,1.62,0,0,0,.07.7c.07.22.14.43.2.63l.22.62a1.3,1.3,0,0,0,.6.77A1.1,1.1,0,0,0,31.3,6.7Z"/><path class="cls-2" d="M34.87,6.59a.27.27,0,0,1-.15,0,.25.25,0,0,1-.08-.14l-.88-5.16a.16.16,0,0,1,0-.15A.2.2,0,0,1,33.93,1L34.66.9a.23.23,0,0,1,.19,0L35,1l1.92,2.44,1-2.94L38,.41a.22.22,0,0,1,.17-.09l.74-.13a.2.2,0,0,1,.15,0,.25.25,0,0,1,.08.14L40,5.52a.19.19,0,0,1,0,.15.2.2,0,0,1-.13.08L39,5.89a.15.15,0,0,1-.14,0,.17.17,0,0,1-.08-.13l-.55-3.21-.69,2.06a.28.28,0,0,1-.08.15.24.24,0,0,1-.15.08l-.38.07a.23.23,0,0,1-.17,0,.69.69,0,0,1-.13-.11L35.29,3l.55,3.21a.19.19,0,0,1,0,.15.26.26,0,0,1-.13.08Z"/><path class="cls-2" d="M41.16,5.64A.18.18,0,0,1,41,5.58.21.21,0,0,1,41,5.43V.2A.17.17,0,0,1,41,.06.18.18,0,0,1,41.16,0h.75a.24.24,0,0,1,.18.06l.08.1,1.48,2.73L45.15.16l.08-.09A.21.21,0,0,1,45.41,0h.75a.18.18,0,0,1,.14.06.18.18,0,0,1,.06.14V5.44a.21.21,0,0,1-.2.2h-.82a.18.18,0,0,1-.14-.06.2.2,0,0,1-.06-.14V2.18l-1,1.92a.45.45,0,0,1-.11.13.26.26,0,0,1-.16.06h-.38a.23.23,0,0,1-.17,0,.69.69,0,0,1-.11-.13l-1-1.92V5.44a.2.2,0,0,1-.06.14.16.16,0,0,1-.13.06Z"/><path class="cls-2" d="M47.53,5.8a.2.2,0,0,1-.13-.08.24.24,0,0,1,0-.15L48.14.39a.19.19,0,0,1,.07-.13.23.23,0,0,1,.16,0L52,.76a.22.22,0,0,1,.14.08.19.19,0,0,1,0,.15l-.09.64a.26.26,0,0,1-.08.13.19.19,0,0,1-.15,0L49.24,1.4l-.19,1.25L51.46,3a.2.2,0,0,1,.13.08.16.16,0,0,1,0,.15l-.09.59a.18.18,0,0,1-.08.13.19.19,0,0,1-.15,0l-2.4-.36-.2,1.29,2.65.4a.17.17,0,0,1,.13.08.19.19,0,0,1,0,.15l-.1.63a.21.21,0,0,1-.07.13.29.29,0,0,1-.16,0Z"/><path class="cls-2" d="M52.37,6.6a.25.25,0,0,1-.13-.09.22.22,0,0,1,0-.16l1.45-5a.23.23,0,0,1,.1-.12.2.2,0,0,1,.15,0l2,.59a2.53,2.53,0,0,1,1.4.89,1.62,1.62,0,0,1,.18,1.44A1.71,1.71,0,0,1,57,5a1.8,1.8,0,0,1-.89.35l.53,2.25a.27.27,0,0,1,0,.09.19.19,0,0,1-.08.1.2.2,0,0,1-.13,0l-.86-.25a.32.32,0,0,1-.19-.14.64.64,0,0,1-.06-.16l-.43-2L54,4.92l-.51,1.79a.2.2,0,0,1-.1.12.19.19,0,0,1-.15,0Zm1.89-2.66,1,.29a1,1,0,0,0,.69,0,.76.76,0,0,0,.36-.49.76.76,0,0,0,0-.6.92.92,0,0,0-.58-.39l-1-.28Z"/><path class="cls-2" d="M59.24,9.07a3,3,0,0,1-1.07-.76,1.84,1.84,0,0,1-.44-1,2.44,2.44,0,0,1,.19-1.21c.08-.21.18-.42.28-.65l.31-.66a2.3,2.3,0,0,1,.78-.94,1.94,1.94,0,0,1,1.05-.35,3,3,0,0,1,1.27.29,3.17,3.17,0,0,1,.84.53A2.28,2.28,0,0,1,63,5a2.06,2.06,0,0,1,.21.75,2,2,0,0,1-.14.79.22.22,0,0,1-.1.09.23.23,0,0,1-.14,0L62,6.22a.2.2,0,0,1-.12-.1.35.35,0,0,1,0-.18,1,1,0,0,0-.1-.76,1.22,1.22,0,0,0-.56-.45,1.15,1.15,0,0,0-.84-.08,1.29,1.29,0,0,0-.66.71c-.19.39-.38.8-.55,1.23a1.23,1.23,0,0,0-.08,1,1.12,1.12,0,0,0,.6.57,1.28,1.28,0,0,0,.72.12A1,1,0,0,0,61,7.81a.29.29,0,0,1,.15-.11.27.27,0,0,1,.15,0l.84.38a.18.18,0,0,1,.1.09.23.23,0,0,1,0,.14,1.78,1.78,0,0,1-.49.62,1.85,1.85,0,0,1-.7.35,2.44,2.44,0,0,1-.86,0A3.29,3.29,0,0,1,59.24,9.07Z"/><path class="cls-2" d="M62.29,10.51a.23.23,0,0,1-.1-.12.21.21,0,0,1,0-.15l2.61-4.53a.19.19,0,0,1,.12-.1.23.23,0,0,1,.16,0l.78.46a.17.17,0,0,1,.1.12.16.16,0,0,1,0,.15L63.35,10.9a.18.18,0,0,1-.12.09.16.16,0,0,1-.15,0Z"/><path class="cls-2" d="M63.92,11.38a.16.16,0,0,1-.07-.11.16.16,0,0,1,0-.12l0-.06L68.52,8A.43.43,0,0,1,68.69,8a.27.27,0,0,1,.2.06l.83.61a.34.34,0,0,1,.13.17.37.37,0,0,1,0,.18L68.35,14.3l0,.06a.14.14,0,0,1-.1.07.15.15,0,0,1-.13,0l-.68-.49a.24.24,0,0,1-.11-.15.28.28,0,0,1,0-.13l.25-.93L65.7,11.36l-.81.53-.12,0a.21.21,0,0,1-.17-.06Zm2.63-.68,1.35,1,.69-2.37Z"/><path class="cls-2" d="M68.72,15a.17.17,0,0,1-.07-.14.2.2,0,0,1,.06-.15l3.61-3.79a.19.19,0,0,1,.14-.07.2.2,0,0,1,.14.06l.65.62a.2.2,0,0,1,.06.14.16.16,0,0,1-.06.14l-3,3.16,1.81,1.72a.21.21,0,0,1,.07.14.2.2,0,0,1-.06.14l-.47.49a.17.17,0,0,1-.14.07.2.2,0,0,1-.14-.06Z"/><path class="cls-2" d="M74.71,19a1,1,0,0,1-.2-.46,1,1,0,0,1,.06-.49.92.92,0,0,1,.3-.4,1,1,0,0,1,.46-.21,1.06,1.06,0,0,1,.5.06.92.92,0,0,1,.4.3.86.86,0,0,1,.2.47,1,1,0,0,1-.81,1.09,1.06,1.06,0,0,1-.5,0A.94.94,0,0,1,74.71,19Z"/><path class="cls-2" d="M75.72,23.14a.24.24,0,0,1,0-.16.23.23,0,0,1,.1-.12l4.56-2.58a.16.16,0,0,1,.15,0,.19.19,0,0,1,.12.1l1.18,2.08a2.71,2.71,0,0,1,.37,1,1.4,1.4,0,0,1-.16.82,1.62,1.62,0,0,1-.63.58,1.15,1.15,0,0,1-.5.17,1.27,1.27,0,0,1-.8-.21,1.47,1.47,0,0,1-.14.72,1.37,1.37,0,0,1-.57.6,1.86,1.86,0,0,1-.89.24,1.54,1.54,0,0,1-.84-.3,2.48,2.48,0,0,1-.71-.83Zm1.35.47.6,1.07a.77.77,0,0,0,.49.41.74.74,0,0,0,.56-.08.78.78,0,0,0,.36-.44A.8.8,0,0,0,79,24l-.61-1.07Zm2.1-1.19.57,1a.76.76,0,0,0,.44.4.64.64,0,0,0,.52-.08.61.61,0,0,0,.32-.4.73.73,0,0,0-.12-.58l-.57-1Z"/><path class="cls-2" d="M79,29.83a3,3,0,0,1-.23-1.26,1.82,1.82,0,0,1,.37-1,2.44,2.44,0,0,1,1-.75l.63-.26.66-.25a2.53,2.53,0,0,1,1.25-.14,2,2,0,0,1,1,.51,2.83,2.83,0,0,1,.69,1.07A2.88,2.88,0,0,1,84.59,29,1.83,1.83,0,0,1,84.2,30a2.42,2.42,0,0,1-1,.75l-.65.26c-.21.09-.42.17-.64.24a2.51,2.51,0,0,1-1.26.15,1.83,1.83,0,0,1-1-.51A3,3,0,0,1,79,29.83Zm1-.38a1,1,0,0,0,.55.61,1.24,1.24,0,0,0,1,0l.63-.23.6-.26a1.35,1.35,0,0,0,.58-.39.92.92,0,0,0,.23-.5,1.15,1.15,0,0,0-.09-.56,1.13,1.13,0,0,0-.32-.47.84.84,0,0,0-.5-.21,1.62,1.62,0,0,0-.69.1l-.62.23-.61.25a1.3,1.3,0,0,0-.74.64A1.06,1.06,0,0,0,79.94,29.45Z"/><path class="cls-2" d="M80.2,33a.16.16,0,0,1,0-.15.18.18,0,0,1,.13-.09l5.09-1.19a.18.18,0,0,1,.16,0,.25.25,0,0,1,.09.13l.46,2a3.2,3.2,0,0,1,.06,1.36,1.9,1.9,0,0,1-.54,1,2.45,2.45,0,0,1-1.1.57l-.6.15-.6.13a2.61,2.61,0,0,1-1.28,0,1.65,1.65,0,0,1-.89-.61A3.31,3.31,0,0,1,80.67,35Zm1.26.81.21.92a1.55,1.55,0,0,0,.27.62.77.77,0,0,0,.46.28,1.63,1.63,0,0,0,.69,0l.41-.09.36-.08.4-.11a1.23,1.23,0,0,0,.79-.5,1.27,1.27,0,0,0,.08-.95L84.92,33Z"/><path class="cls-2" d="M81.29,37.75a.16.16,0,0,1,0-.12.16.16,0,0,1,.12-.06h.07L86.84,39a.3.3,0,0,1,.16.08.31.31,0,0,1,.09.2l.08,1a.28.28,0,0,1,0,.21.33.33,0,0,1-.15.11L82,43h-.07a.14.14,0,0,1-.12,0,.14.14,0,0,1-.06-.12L81.67,42a.24.24,0,0,1,0-.19.32.32,0,0,1,.09-.08l.87-.42-.2-2.26-.92-.27a.3.3,0,0,1-.11-.06.23.23,0,0,1-.08-.17Zm2.25,1.54L83.68,41l2.24-1Z"/><path class="cls-2" d="M81.67,45.25a.21.21,0,0,1,.07-.14.19.19,0,0,1,.15,0l5.21.5a.21.21,0,0,1,.14.07.19.19,0,0,1,0,.15l-.23,2.38a2.73,2.73,0,0,1-.29,1.07,1.36,1.36,0,0,1-.61.58,1.68,1.68,0,0,1-.85.12,1.23,1.23,0,0,1-.85-.45,2,2,0,0,1-.19-.33,1.37,1.37,0,0,1-.53.51,1.35,1.35,0,0,1-.81.16,1.81,1.81,0,0,1-.86-.31,1.53,1.53,0,0,1-.52-.72,2.57,2.57,0,0,1-.1-1.1Zm.84,1.16-.12,1.23a.75.75,0,0,0,.16.61.81.81,0,0,0,.51.26.79.79,0,0,0,.54-.16.74.74,0,0,0,.27-.57L84,46.56Zm2.4.24L84.8,47.8a.8.8,0,0,0,.13.58.67.67,0,0,0,.47.24.63.63,0,0,0,.49-.14.77.77,0,0,0,.24-.55l.11-1.16Z"/><path class="cls-2" d="M80.5,52.57A2.88,2.88,0,0,1,81,51.4a1.85,1.85,0,0,1,.9-.64,2.57,2.57,0,0,1,1.27,0l.67.16.68.17a2.57,2.57,0,0,1,1.11.6,1.91,1.91,0,0,1,.52,1,3,3,0,0,1-.05,1.28,2.85,2.85,0,0,1-.54,1.15,1.86,1.86,0,0,1-.92.64,2.32,2.32,0,0,1-1.26,0c-.23,0-.46-.09-.68-.15l-.67-.17A2.51,2.51,0,0,1,81,54.82a1.88,1.88,0,0,1-.52-1A3,3,0,0,1,80.5,52.57Zm1,.24a1,1,0,0,0,.09.82,1.27,1.27,0,0,0,.81.52l.65.18.64.14a1.51,1.51,0,0,0,.7,0,1,1,0,0,0,.47-.28,1.11,1.11,0,0,0,.25-.51,1.22,1.22,0,0,0,0-.57.88.88,0,0,0-.29-.46,1.55,1.55,0,0,0-.63-.31l-.63-.17L82.93,52a1.28,1.28,0,0,0-1,.1A1,1,0,0,0,81.51,52.81Z"/><path class="cls-2" d="M79.66,55.9a.23.23,0,0,1,.11-.11.22.22,0,0,1,.16,0l4.85,2a.16.16,0,0,1,.11.1.18.18,0,0,1,0,.16l-.75,1.87A3.18,3.18,0,0,1,83.4,61a1.77,1.77,0,0,1-1,.48,2.35,2.35,0,0,1-1.22-.17l-.58-.22L80,60.9a2.82,2.82,0,0,1-1-.75,1.67,1.67,0,0,1-.37-1,3.35,3.35,0,0,1,.27-1.33Zm.56,1.39-.35.88a1.5,1.5,0,0,0-.13.65.78.78,0,0,0,.21.5,1.67,1.67,0,0,0,.58.38l.39.17.34.13.38.15a1.27,1.27,0,0,0,1,0,1.23,1.23,0,0,0,.6-.73l.34-.84Z"/><path class="cls-2" d="M77.84,60.4a.2.2,0,0,1,.1-.08.19.19,0,0,1,.13,0l.06,0,3.52,4.25a.32.32,0,0,1,.09.16.36.36,0,0,1,0,.21l-.51.89A.3.3,0,0,1,81,66a.28.28,0,0,1-.18,0l-5.44-.93a.11.11,0,0,1-.07,0,.16.16,0,0,1-.08-.1.15.15,0,0,1,0-.13l.42-.72a.27.27,0,0,1,.13-.13A.31.31,0,0,1,76,64l1,.15,1.13-2-.61-.76a.23.23,0,0,1-.05-.11.22.22,0,0,1,0-.18Zm1,2.55L78,64.4l2.42.44Z"/></g></g></svg>